%FSLAX44Y44*%
%MOMM*%
G71*
G01*
G75*
G04 Layer_Physical_Order=1*
G04 Layer_Color=255*
%ADD10R,0.5000X0.6000*%
%ADD11R,0.5000X0.5000*%
%ADD12R,0.6000X0.5000*%
%ADD13R,1.4000X1.2000*%
%ADD14R,0.2500X0.5000*%
%ADD15C,1.5000*%
%ADD16R,0.2500X0.4000*%
%ADD17R,0.4000X0.2500*%
%ADD18R,3.2000X3.2000*%
%ADD19R,0.5590X1.1940*%
%ADD20R,0.9000X1.3000*%
%ADD21R,0.6000X1.2000*%
%ADD22R,0.6000X2.0000*%
%ADD23C,4.0000*%
%ADD24C,0.3000*%
%ADD25C,0.5000*%
%ADD26C,0.1500*%
%ADD27C,0.2000*%
%ADD28C,0.4500*%
G36*
X-129562Y-12660D02*
X-129827Y-12262D01*
X-129816Y-12215D01*
X-129562Y-12660D01*
D02*
G37*
G36*
X-161286Y17473D02*
X-161326Y17511D01*
X-161782Y18101D01*
X-161286Y17473D01*
D02*
G37*
G36*
X-166881Y18615D02*
X-167594Y18258D01*
X-166866Y18627D01*
X-166881Y18615D01*
D02*
G37*
G36*
X20070Y14750D02*
Y9750D01*
Y4750D01*
Y-250D01*
Y-5250D01*
Y-10250D01*
Y-15250D01*
Y-20070D01*
X-20070D01*
Y-15250D01*
Y-10250D01*
Y-5250D01*
Y-4659D01*
X-19872Y-4619D01*
X-19128Y-4122D01*
X-16628Y-1622D01*
X-16131Y-878D01*
X-15956Y-0D01*
Y15956D01*
X-8750D01*
X-7872Y16131D01*
X-7128Y16628D01*
X-5878Y17878D01*
X-5381Y18622D01*
X-5206Y19500D01*
Y20070D01*
X20070D01*
Y14750D01*
D02*
G37*
G36*
X-187052Y-42729D02*
X-186997Y-42721D01*
X-186685D01*
X-187052Y-42729D01*
D02*
G37*
G36*
X-162137Y18265D02*
X-161326Y17511D01*
X-160575Y16536D01*
X-159599Y14861D01*
X-158105Y11469D01*
X-155897Y4694D01*
X-153206Y-5560D01*
X-149928Y-18979D01*
X-148175Y-25636D01*
X-146166Y-32171D01*
X-144943Y-35256D01*
X-143511Y-37914D01*
X-143115Y-38416D01*
X-142736Y-38726D01*
X-142528Y-38518D01*
X-142345Y-38335D01*
X-141955Y-37842D01*
X-141568Y-37249D01*
X-140827Y-35893D01*
X-140188Y-34385D01*
X-139043Y-31256D01*
X-138000Y-28000D01*
X-136307Y-22052D01*
X-133702Y-11265D01*
X-132738Y-11500D01*
X-132626Y-11239D01*
X-132288Y-10874D01*
X-132030Y-10766D01*
X-131747Y-10718D01*
X-131510Y-10760D01*
X-131254Y-10853D01*
X-131054Y-11030D01*
X-130867Y-11240D01*
X-130779Y-11476D01*
X-130732Y-11734D01*
X-130773Y-11981D01*
X-130028Y-11961D01*
X-129827Y-12262D01*
X-133214Y-25742D01*
X-135251Y-32542D01*
X-136496Y-35916D01*
X-138123Y-39294D01*
X-139354Y-41005D01*
X-140382Y-41927D01*
X-141279Y-42441D01*
X-142606Y-42746D01*
X-143929Y-42551D01*
X-145031Y-42007D01*
X-146023Y-41168D01*
X-146727Y-40291D01*
X-147695Y-38758D01*
X-148612Y-36904D01*
X-149933Y-33526D01*
X-152015Y-26744D01*
X-153797Y-19957D01*
X-157100Y-6417D01*
X-159742Y3594D01*
X-161828Y10030D01*
X-163154Y13014D01*
X-163901Y14301D01*
X-164623Y15126D01*
X-164741Y15244D01*
X-165452Y14533D01*
X-166557Y12606D01*
X-167832Y9571D01*
X-169917Y3111D01*
X-173348Y-10280D01*
X-176700Y-23814D01*
X-178603Y-30590D01*
X-179742Y-33959D01*
X-181530Y-38225D01*
X-183181Y-40804D01*
X-184028Y-41659D01*
X-185340Y-42472D01*
X-186997Y-42721D01*
X-187024D01*
X-188675Y-42238D01*
X-189774Y-41408D01*
X-190591Y-40460D01*
X-191639Y-38848D01*
X-193220Y-35417D01*
X-195475Y-28674D01*
X-197307Y-21888D01*
X-200635Y-8349D01*
X-202312Y-1642D01*
X-204142Y4993D01*
X-204289Y5409D01*
Y16000D01*
X-203464Y14605D01*
X-202680Y12911D01*
X-201387Y9540D01*
X-200322Y6140D01*
X-198443Y-639D01*
X-196745Y-7389D01*
X-193439Y-20883D01*
X-191635Y-27541D01*
X-190642Y-30797D01*
X-189496Y-33955D01*
X-188169Y-36864D01*
X-187373Y-38072D01*
X-187002Y-38522D01*
X-186723Y-38721D01*
X-186597Y-38594D01*
X-186230Y-38228D01*
X-185100Y-36378D01*
X-183494Y-32606D01*
X-182425Y-29398D01*
X-180569Y-22814D01*
X-177242Y-9351D01*
X-173764Y4205D01*
X-171633Y10899D01*
X-170151Y14378D01*
X-168653Y16916D01*
X-167902Y17794D01*
X-166881Y18615D01*
X-166846Y18632D01*
X-166440Y18824D01*
X-163000D01*
X-162137Y18265D01*
D02*
G37*
G36*
X71000Y-1500D02*
X80000D01*
Y-559D01*
X85733D01*
X87345Y-2171D01*
X86732Y-3650D01*
X86422Y-6000D01*
X86732Y-8349D01*
X87639Y-10539D01*
X89081Y-12419D01*
X90961Y-13862D01*
X92441Y-14475D01*
Y-53809D01*
X55500Y-90750D01*
X-126750D01*
Y-16078D01*
X-106750D01*
X-106356Y-16000D01*
X-104000D01*
Y-15423D01*
X-103097Y-15006D01*
X-102549Y-15093D01*
X-102000Y-15657D01*
Y-16000D01*
X-99644D01*
X-99250Y-16078D01*
X-57500D01*
X-57106Y-16000D01*
X-53000D01*
Y-15559D01*
X-27070D01*
Y-17756D01*
X-52314Y-43000D01*
X-56500D01*
Y-51000D01*
X-47500D01*
Y-44674D01*
X-23076Y-20250D01*
X-20250D01*
Y-27070D01*
X-19794D01*
Y-31000D01*
X-19619Y-31878D01*
X-19122Y-32622D01*
X-17122Y-34622D01*
X-16378Y-35119D01*
X-15500Y-35294D01*
X-15500Y-35294D01*
X-7768D01*
X-5794Y-37268D01*
Y-50500D01*
X-22500D01*
Y-55706D01*
X-29500D01*
Y-53250D01*
X-38500D01*
Y-61250D01*
X-29500D01*
Y-60294D01*
X-22500D01*
Y-65500D01*
X-5500D01*
Y-60294D01*
X-4622Y-60119D01*
X-3878Y-59622D01*
X-1878Y-57622D01*
X-1878Y-57622D01*
X-1381Y-56878D01*
X-1352Y-56732D01*
X-1206Y-56000D01*
X-1206Y-56000D01*
Y-50478D01*
X-500Y-49500D01*
X16500D01*
Y-44294D01*
X25500D01*
Y-47000D01*
X34500D01*
Y-39000D01*
X25500D01*
Y-39706D01*
X16500D01*
Y-34500D01*
X10294D01*
Y-32250D01*
X10294Y-32250D01*
X10148Y-31518D01*
X10119Y-31372D01*
X9622Y-30628D01*
X7372Y-28378D01*
X7315Y-28340D01*
X7701Y-27070D01*
X20250D01*
Y-20250D01*
X27070D01*
Y-18154D01*
X28243Y-17668D01*
X28448Y-17872D01*
X29192Y-18369D01*
X30070Y-18544D01*
X41773D01*
X42046Y-18954D01*
X43287Y-19782D01*
X44750Y-20073D01*
X46213Y-19782D01*
X47454Y-18954D01*
X48282Y-17713D01*
X48573Y-16250D01*
X48282Y-14787D01*
X47454Y-13546D01*
X46213Y-12718D01*
X44750Y-12427D01*
X43287Y-12718D01*
X42046Y-13546D01*
X41773Y-13956D01*
X38816D01*
X38691Y-12686D01*
X39463Y-12532D01*
X40704Y-11703D01*
X41532Y-10463D01*
X41823Y-9000D01*
X41532Y-7537D01*
X40704Y-6296D01*
X39463Y-5468D01*
X38000Y-5177D01*
X36557Y-5464D01*
X36487Y-5415D01*
X35653Y-4530D01*
X36032Y-3963D01*
X36323Y-2500D01*
X36140Y-1579D01*
X36957Y-309D01*
X71000D01*
Y-1500D01*
D02*
G37*
G36*
X-95872Y51128D02*
X-95128Y50631D01*
X-94250Y50456D01*
X-88000D01*
Y48750D01*
X-82744D01*
X-62462Y28467D01*
X-62948Y27294D01*
X-91800D01*
X-113788Y49283D01*
X-113302Y50456D01*
X-109000D01*
X-108122Y50631D01*
X-107378Y51128D01*
X-104878Y53628D01*
X-104878Y53628D01*
X-104462Y54250D01*
X-103270D01*
X-102000Y54250D01*
X-102000Y54250D01*
X-102000D01*
Y54250D01*
X-102000Y54250D01*
X-98994D01*
X-95872Y51128D01*
D02*
G37*
G36*
X-4059Y122059D02*
X-6000D01*
Y127000D01*
X-18000D01*
Y111000D01*
X-13809D01*
Y80873D01*
X-14118Y80673D01*
X-14242Y80592D01*
X-15491Y81285D01*
X-15500Y81504D01*
X-15500Y81720D01*
Y81764D01*
Y81764D01*
Y103500D01*
X-24500D01*
Y95059D01*
X-53250D01*
Y96250D01*
X-62250D01*
Y95309D01*
X-66078D01*
X-66787Y95782D01*
X-68250Y96073D01*
X-69713Y95782D01*
X-70954Y94954D01*
X-71782Y93713D01*
X-72073Y92250D01*
X-71782Y90787D01*
X-70954Y89546D01*
X-69713Y88718D01*
X-68250Y88427D01*
X-66787Y88718D01*
X-66078Y89191D01*
X-62250D01*
Y88250D01*
X-53250D01*
Y88941D01*
X-24500D01*
Y80500D01*
X-16764D01*
X-16764D01*
X-16719D01*
X-16504Y80500D01*
X-16046Y80481D01*
X-15464Y80308D01*
X-15451Y80292D01*
X-15076Y79838D01*
X-14810Y79516D01*
X-20163Y74163D01*
X-20826Y73170D01*
X-20924Y72678D01*
X-20965Y72632D01*
X-21750Y71750D01*
X-21750Y71750D01*
X-21750D01*
X-21750Y71750D01*
Y62750D01*
X-20559D01*
Y55000D01*
X-21500D01*
Y46000D01*
X-20559D01*
Y39044D01*
X-21500Y38250D01*
X-22500D01*
Y38250D01*
X-30500D01*
Y36544D01*
X-42250D01*
Y38250D01*
X-51250D01*
Y31044D01*
X-58550D01*
X-79000Y51494D01*
Y56750D01*
X-88000D01*
Y55044D01*
X-93000D01*
Y69250D01*
X-102000D01*
Y69250D01*
Y69250D01*
X-102000D01*
Y69250D01*
X-102000Y69250D01*
X-111000D01*
Y55044D01*
X-116000D01*
Y56750D01*
X-125000D01*
Y48750D01*
X-119744D01*
X-94372Y23378D01*
X-94372Y23378D01*
X-93628Y22881D01*
X-93482Y22852D01*
X-92750Y22706D01*
X-92750Y22706D01*
X-54028D01*
X-53762Y22314D01*
X-54433Y21044D01*
X-102000D01*
Y22750D01*
X-111000D01*
Y14750D01*
X-102000D01*
Y16456D01*
X-53200D01*
X-47791Y11047D01*
X-47853Y10682D01*
X-48349Y9809D01*
X-51828D01*
X-52537Y10282D01*
X-54000Y10573D01*
X-55463Y10282D01*
X-56172Y9809D01*
X-59750D01*
Y11250D01*
X-67750D01*
Y2250D01*
X-59750D01*
Y3691D01*
X-56172D01*
X-55463Y3218D01*
X-54000Y2927D01*
X-52537Y3218D01*
X-51828Y3691D01*
X-49267D01*
X-37308Y-8268D01*
X-37794Y-9441D01*
X-53000D01*
Y-8000D01*
X-57106D01*
X-57500Y-7922D01*
X-99250D01*
X-99644Y-8000D01*
X-102000D01*
Y-8577D01*
X-102902Y-8994D01*
X-103451Y-8907D01*
X-104000Y-8343D01*
Y-8000D01*
X-106356D01*
X-106750Y-7922D01*
X-125918D01*
X-126772Y-6982D01*
X-126750Y-6750D01*
Y139250D01*
X-4059D01*
Y122059D01*
D02*
G37*
G36*
X180000Y124000D02*
Y93500D01*
Y88809D01*
X84672D01*
X83963Y89282D01*
X82500Y89573D01*
X81037Y89282D01*
X79796Y88454D01*
X78968Y87213D01*
X78677Y85750D01*
X78968Y84287D01*
X79796Y83046D01*
X81037Y82218D01*
X82500Y81927D01*
X83963Y82218D01*
X84672Y82691D01*
X181809D01*
X192691Y71809D01*
Y39517D01*
X184674Y31500D01*
X177750D01*
X143309Y-2941D01*
X103975D01*
X103362Y-1461D01*
X101919Y419D01*
X100039Y1861D01*
X97850Y2768D01*
X95500Y3078D01*
X93151Y2768D01*
X91671Y2155D01*
X89163Y4663D01*
X88170Y5326D01*
X87000Y5559D01*
X87000Y5559D01*
X80000D01*
Y6500D01*
X71000D01*
Y5809D01*
X37453D01*
X36761Y6852D01*
X36791Y7079D01*
X37073Y8500D01*
X36782Y9963D01*
X35954Y11204D01*
X34713Y12032D01*
X33250Y12323D01*
X31787Y12032D01*
X30546Y11204D01*
X29718Y9963D01*
X29684Y9794D01*
X27070D01*
Y10250D01*
Y14750D01*
Y20250D01*
X20250D01*
Y27070D01*
X19472D01*
X18986Y28243D01*
X20198Y29456D01*
X83550D01*
X89273Y23733D01*
X89177Y23250D01*
X89468Y21787D01*
X90296Y20546D01*
X91537Y19718D01*
X93000Y19427D01*
X93483Y19523D01*
X101500Y11506D01*
Y6250D01*
X109500D01*
Y15250D01*
X104244D01*
X96727Y22767D01*
X96823Y23250D01*
X96532Y24713D01*
X95704Y25954D01*
X94463Y26782D01*
X93000Y27073D01*
X92517Y26977D01*
X87712Y31783D01*
X88198Y32956D01*
X153750D01*
X154628Y33131D01*
X155372Y33628D01*
X158672Y36928D01*
X158672Y36928D01*
X159169Y37672D01*
X159344Y38550D01*
Y40510D01*
X161345D01*
Y46206D01*
X178500D01*
Y44500D01*
X187500D01*
Y52500D01*
X178500D01*
Y50794D01*
X161345D01*
Y55450D01*
X152755D01*
Y40510D01*
X154128D01*
X154496Y39240D01*
X152800Y37544D01*
X125365D01*
X124879Y38717D01*
X125617Y39456D01*
X126115Y40200D01*
X126143Y40346D01*
X126146Y40361D01*
X127355Y40510D01*
X127355Y40510D01*
X127355Y40510D01*
X135945D01*
Y55450D01*
X127355D01*
Y50274D01*
X123995D01*
X123245Y50890D01*
Y55450D01*
X114655D01*
Y54294D01*
X22568D01*
X22568Y54294D01*
X21836Y54148D01*
X21690Y54119D01*
X20946Y53622D01*
X19564Y52240D01*
X18294Y52766D01*
Y58750D01*
X19750D01*
Y64006D01*
X24750Y69006D01*
X26378Y67378D01*
X27122Y66881D01*
X28000Y66706D01*
X61523D01*
X61796Y66296D01*
X63037Y65468D01*
X64500Y65177D01*
X65963Y65468D01*
X67204Y66296D01*
X68032Y67537D01*
X68323Y69000D01*
X68032Y70463D01*
X67204Y71704D01*
X65963Y72532D01*
X64500Y72823D01*
X63037Y72532D01*
X61796Y71704D01*
X61523Y71294D01*
X28950D01*
X26372Y73872D01*
X25628Y74369D01*
X24750Y74544D01*
X23872Y74369D01*
X23128Y73872D01*
X17006Y67750D01*
X11750D01*
Y58750D01*
X13706D01*
Y51250D01*
X12000D01*
Y46112D01*
X11641Y45872D01*
X6813Y41044D01*
X4930D01*
X4052Y40869D01*
X3308Y40372D01*
X2722Y39787D01*
X1549Y40273D01*
Y80500D01*
X3500D01*
Y103500D01*
X-5500D01*
Y80500D01*
X-3549D01*
Y39799D01*
X-3589D01*
X-4564Y39605D01*
X-5391Y39052D01*
X-12327Y32117D01*
X-13500Y32603D01*
Y38250D01*
X-14441D01*
Y46000D01*
X-13500D01*
Y55000D01*
X-14441D01*
Y62750D01*
X-13750D01*
Y71750D01*
X-13750Y71750D01*
X-13750D01*
X-13005Y72669D01*
X-8587Y77087D01*
X-8587Y77087D01*
X-7924Y78080D01*
X-7691Y79250D01*
Y111000D01*
X-6000D01*
Y115941D01*
X3000D01*
Y111000D01*
X15000D01*
Y127000D01*
X3000D01*
X2059Y127794D01*
Y139250D01*
X164750D01*
X180000Y124000D01*
D02*
G37*
G36*
X114655Y49031D02*
Y40544D01*
X23889D01*
X23006Y41814D01*
X23044Y42007D01*
Y43662D01*
X24314Y44268D01*
X24829Y43924D01*
X26000Y43691D01*
X36250D01*
X37420Y43924D01*
X38413Y44587D01*
X39076Y45580D01*
X39309Y46750D01*
X39076Y47921D01*
X38732Y48436D01*
X39338Y49706D01*
X113980D01*
X114655Y49031D01*
D02*
G37*
%LPC*%
G36*
X75500Y-4441D02*
X74330Y-4674D01*
X73337Y-5337D01*
X72674Y-6330D01*
X72441Y-7500D01*
Y-41483D01*
X63983Y-49941D01*
X30000D01*
X28830Y-50174D01*
X27837Y-50837D01*
X27174Y-51830D01*
X26941Y-53000D01*
X27174Y-54170D01*
X27837Y-55163D01*
X28830Y-55826D01*
X30000Y-56059D01*
X65250D01*
X65250Y-56059D01*
X66420Y-55826D01*
X67413Y-55163D01*
X77663Y-44913D01*
X78326Y-43920D01*
X78559Y-42750D01*
X78559Y-42750D01*
Y-7500D01*
X78326Y-6330D01*
X77663Y-5337D01*
X76670Y-4674D01*
X75500Y-4441D01*
D02*
G37*
G36*
X-27750Y70309D02*
X-28921Y70076D01*
X-29913Y69413D01*
X-30163Y69163D01*
X-30826Y68170D01*
X-31059Y67000D01*
X-30826Y65830D01*
X-30163Y64837D01*
X-29171Y64174D01*
X-28000Y63941D01*
X-26830Y64174D01*
X-25837Y64837D01*
X-25587Y65087D01*
X-24924Y66080D01*
X-24691Y67250D01*
X-24924Y68421D01*
X-25587Y69413D01*
X-26579Y70076D01*
X-27750Y70309D01*
D02*
G37*
G36*
X-102000Y132250D02*
X-102000D01*
D01*
X-103270Y132250D01*
X-111000D01*
Y117250D01*
X-103270D01*
X-102000Y117250D01*
X-102000D01*
X-100730Y117250D01*
X-93000D01*
Y132250D01*
X-100730D01*
X-102000Y132250D01*
D02*
G37*
G36*
X-14000Y-38941D02*
X-15171Y-39174D01*
X-16163Y-39837D01*
X-18267Y-41941D01*
X-24000D01*
X-25171Y-42174D01*
X-26163Y-42837D01*
X-26826Y-43829D01*
X-27059Y-45000D01*
X-26826Y-46171D01*
X-26163Y-47163D01*
X-25171Y-47826D01*
X-24000Y-48059D01*
X-17000D01*
X-17000Y-48059D01*
X-15829Y-47826D01*
X-14837Y-47163D01*
X-11837Y-44163D01*
X-11174Y-43170D01*
X-10941Y-42000D01*
X-11174Y-40830D01*
X-11837Y-39837D01*
X-12830Y-39174D01*
X-14000Y-38941D01*
D02*
G37*
G36*
X115500Y26309D02*
X114330Y26076D01*
X113337Y25413D01*
X112674Y24420D01*
X112441Y23250D01*
Y10750D01*
X112674Y9579D01*
X113337Y8587D01*
X114330Y7924D01*
X115500Y7691D01*
X116671Y7924D01*
X117663Y8587D01*
X118326Y9579D01*
X118559Y10750D01*
Y23250D01*
X118326Y24420D01*
X117663Y25413D01*
X116671Y26076D01*
X115500Y26309D01*
D02*
G37*
G36*
X-120500Y45809D02*
X-121671Y45576D01*
X-122663Y44913D01*
X-123326Y43920D01*
X-123559Y42750D01*
Y32500D01*
X-123326Y31330D01*
X-122663Y30337D01*
X-121671Y29674D01*
X-120500Y29441D01*
X-119330Y29674D01*
X-118337Y30337D01*
X-117674Y31330D01*
X-117441Y32500D01*
Y42750D01*
X-117674Y43920D01*
X-118337Y44913D01*
X-119330Y45576D01*
X-120500Y45809D01*
D02*
G37*
G36*
X-83500D02*
X-84670Y45576D01*
X-85663Y44913D01*
X-86326Y43920D01*
X-86559Y42750D01*
Y32500D01*
X-86326Y31330D01*
X-85663Y30337D01*
X-84670Y29674D01*
X-83500Y29441D01*
X-82330Y29674D01*
X-81337Y30337D01*
X-80674Y31330D01*
X-80441Y32500D01*
Y42750D01*
X-80674Y43920D01*
X-81337Y44913D01*
X-82330Y45576D01*
X-83500Y45809D01*
D02*
G37*
G36*
X183000Y71809D02*
X154870D01*
X153700Y71576D01*
X152707Y70913D01*
X142187Y60393D01*
X141524Y59401D01*
X141291Y58230D01*
X141291Y58230D01*
Y47980D01*
X141524Y46810D01*
X142187Y45817D01*
X143180Y45154D01*
X144350Y44921D01*
X145520Y45154D01*
X146513Y45817D01*
X147176Y46810D01*
X147409Y47980D01*
Y56963D01*
X156137Y65691D01*
X179941D01*
Y58500D01*
X180174Y57330D01*
X180837Y56337D01*
X181829Y55674D01*
X183000Y55441D01*
X184170Y55674D01*
X185163Y56337D01*
X185826Y57330D01*
X186059Y58500D01*
Y68750D01*
X185826Y69921D01*
X185163Y70913D01*
X184170Y71576D01*
X183000Y71809D01*
D02*
G37*
G36*
X-73750Y9809D02*
X-84000D01*
X-85170Y9576D01*
X-86163Y8913D01*
X-86826Y7921D01*
X-87059Y6750D01*
X-86826Y5580D01*
X-86163Y4587D01*
X-85170Y3924D01*
X-84000Y3691D01*
X-73750D01*
X-72579Y3924D01*
X-71587Y4587D01*
X-70924Y5580D01*
X-70691Y6750D01*
X-70924Y7921D01*
X-71587Y8913D01*
X-72579Y9576D01*
X-73750Y9809D01*
D02*
G37*
G36*
X-106500Y11809D02*
X-116750D01*
X-117921Y11576D01*
X-118913Y10913D01*
X-119576Y9920D01*
X-119809Y8750D01*
X-119576Y7580D01*
X-118913Y6587D01*
X-117921Y5924D01*
X-116750Y5691D01*
X-106500D01*
X-105330Y5924D01*
X-104337Y6587D01*
X-103674Y7580D01*
X-103441Y8750D01*
X-103674Y9920D01*
X-104337Y10913D01*
X-105330Y11576D01*
X-106500Y11809D01*
D02*
G37*
%LPD*%
D10*
X-17750Y67250D02*
D03*
X-27750D02*
D03*
X-17500Y50500D02*
D03*
X-27500D02*
D03*
X-63750Y6750D02*
D03*
X-73750D02*
D03*
X105500Y10750D02*
D03*
X115500D02*
D03*
X16000Y46750D02*
D03*
X26000D02*
D03*
X15750Y63250D02*
D03*
X25750D02*
D03*
D11*
X-26500Y34250D02*
D03*
X-17500D02*
D03*
D12*
X-120500Y52750D02*
D03*
Y42750D02*
D03*
X-83500Y52750D02*
D03*
Y42750D02*
D03*
X-46750Y34250D02*
D03*
Y44250D02*
D03*
X-57500Y-12000D02*
D03*
Y-22000D02*
D03*
X-82000Y-12000D02*
D03*
Y-22000D02*
D03*
X-121000Y-12000D02*
D03*
Y-22000D02*
D03*
X-106500Y18750D02*
D03*
Y8750D02*
D03*
X-52000Y-47000D02*
D03*
Y-57000D02*
D03*
X-34000Y-57250D02*
D03*
Y-47250D02*
D03*
X30000Y-43000D02*
D03*
Y-53000D02*
D03*
X75500Y-7500D02*
D03*
Y2500D02*
D03*
X183000Y48500D02*
D03*
Y58500D02*
D03*
X-57750Y92250D02*
D03*
Y82250D02*
D03*
D13*
X-14000Y-42000D02*
D03*
X8000D02*
D03*
Y-58000D02*
D03*
X-14000D02*
D03*
D14*
X-106750Y-12000D02*
D03*
X-99250D02*
D03*
D15*
X95500Y-6000D02*
D03*
D16*
X-17500Y23570D02*
D03*
X-12500D02*
D03*
X-7500D02*
D03*
X-2500D02*
D03*
X2500D02*
D03*
X7500D02*
D03*
X12500D02*
D03*
X17500D02*
D03*
Y-23570D02*
D03*
X12500D02*
D03*
X7500D02*
D03*
X2500D02*
D03*
X-2500D02*
D03*
X-7500D02*
D03*
X-12500D02*
D03*
X-17500D02*
D03*
D17*
X23570Y17500D02*
D03*
Y12500D02*
D03*
Y7500D02*
D03*
Y2500D02*
D03*
Y-2500D02*
D03*
Y-7500D02*
D03*
Y-12500D02*
D03*
Y-17500D02*
D03*
X-23570D02*
D03*
Y-12500D02*
D03*
Y-7500D02*
D03*
Y-2500D02*
D03*
Y2500D02*
D03*
Y7500D02*
D03*
Y12500D02*
D03*
Y17500D02*
D03*
D18*
X0Y0D02*
D03*
D19*
X157050Y98520D02*
D03*
X144350D02*
D03*
X131650D02*
D03*
X118950D02*
D03*
X157050Y47980D02*
D03*
X144350D02*
D03*
X131650D02*
D03*
X118950D02*
D03*
D20*
X-31000Y119000D02*
D03*
X-12000D02*
D03*
X28000D02*
D03*
X9000D02*
D03*
D21*
X-97500Y61750D02*
D03*
Y124750D02*
D03*
X-106500D02*
D03*
Y61750D02*
D03*
D22*
X-1000Y92000D02*
D03*
X-20000D02*
D03*
D23*
X-66000Y186000D02*
D03*
X196000Y-29000D02*
D03*
X63000Y188500D02*
D03*
X171000Y-99000D02*
D03*
X126000Y-152000D02*
D03*
X-121500Y-153250D02*
D03*
X128500Y144000D02*
D03*
D24*
X-103500Y-153250D02*
X-92750Y-142500D01*
X-121500Y-153250D02*
X-103500D01*
X-18000Y65250D02*
X-17500Y64750D01*
X-18000Y65250D02*
Y72000D01*
X-10750Y79250D01*
Y117750D01*
X-12000Y119000D02*
X-10750Y117750D01*
X-17500Y23570D02*
Y64750D01*
X-48000Y6750D02*
X-33750Y-7500D01*
X-23570D01*
X-56750Y92000D02*
X-20000D01*
X-68250Y92250D02*
X-57750D01*
X-57500Y92750D02*
X-56750Y92000D01*
X-63750Y6750D02*
X-54000D01*
X-48000D01*
X23570Y2500D02*
X23820Y2750D01*
X75250D02*
X75500Y2500D01*
X23820Y2750D02*
X75250D01*
X75500Y2500D02*
X87000D01*
X95500Y-6000D01*
X-28000Y67000D02*
X-27750Y67250D01*
X-83500Y32500D02*
Y42750D01*
X-120500Y32500D02*
Y42750D01*
X-116750Y8750D02*
X-106500D01*
X-84000Y6750D02*
X-73750D01*
X144350Y47980D02*
Y58230D01*
X183000Y58500D02*
Y68750D01*
X30000Y-53000D02*
X40250D01*
X75500Y-42750D02*
Y-7500D01*
X65250Y-53000D02*
X75500Y-42750D01*
X40250Y-53000D02*
X65250D01*
X154870Y68750D02*
X183000D01*
X144350Y58230D02*
X154870Y68750D01*
X-24250Y157250D02*
X-7750D01*
X-1000Y150500D01*
Y119000D02*
Y150500D01*
X-12000Y119000D02*
X-1000D01*
X9000D01*
X95500Y-89500D02*
Y-6000D01*
X95250Y-89750D02*
X95500Y-89500D01*
Y-6000D02*
X151500D01*
X195750Y38250D01*
Y75500D01*
X185500Y85750D02*
X195750Y75500D01*
X82500Y85750D02*
X185500D01*
X26000Y46750D02*
X36250D01*
X-57250Y-12500D02*
X-23320D01*
X115500Y10750D02*
Y23250D01*
X-17000Y-45000D02*
X-14000Y-42000D01*
X-24000Y-45000D02*
X-17000D01*
D25*
X-99250Y-12000D02*
X-82000D01*
X-121000D02*
X-106750D01*
X-132000D02*
X-121000D01*
X-82000D02*
X-57500D01*
D26*
X-26500Y20430D02*
X-23570Y17500D01*
X-26500Y20430D02*
Y34250D01*
X-46750D02*
X-26500D01*
X-46750Y34250D02*
X-46750Y34250D01*
X-23570Y-2500D02*
X-20750D01*
X-18250Y-0D01*
X-7500Y19500D02*
Y23570D01*
X-18250Y-0D02*
Y16932D01*
X-8750Y18250D02*
X-7500Y19500D01*
X-18250Y16932D02*
X-16932Y18250D01*
X-8750D01*
X-34757Y7500D02*
X-23570D01*
X-33682Y12500D02*
X-23570D01*
X-7500Y23570D02*
X-7180D01*
X16000Y46750D02*
Y63000D01*
X15750Y63250D02*
X16000Y63000D01*
X-7180Y23570D02*
Y26640D01*
X-106500Y18750D02*
X-52250D01*
X-36000Y2500D01*
X-23570D01*
X-120500Y52750D02*
X-92750Y25000D01*
X-52257D01*
X-34757Y7500D01*
X-49932Y28750D02*
X-33682Y12500D01*
X-83500Y52750D02*
X-59500Y28750D01*
X-49932D01*
X-120500Y52750D02*
X-109000D01*
X-106500Y55250D01*
Y61750D01*
X-97500Y56000D02*
Y61750D01*
Y56000D02*
X-94250Y52750D01*
X-83500D01*
X-52000Y-45930D02*
X-23570Y-17500D01*
X-52000Y-47000D02*
Y-45930D01*
X-33250Y-58000D02*
X-14000D01*
X-34000Y-57250D02*
X-33250Y-58000D01*
X8000Y-42000D02*
X29000D01*
X30000Y-43000D01*
X-14000Y-58000D02*
X-5500D01*
X-3500Y-56000D01*
Y-36318D01*
X-17500Y-31000D02*
Y-23570D01*
Y-31000D02*
X-15500Y-33000D01*
X-6818D01*
X-3500Y-36318D01*
X-12500Y-27500D02*
Y-23570D01*
Y-27500D02*
X-10000Y-30000D01*
X5750D01*
X8000Y-32250D01*
Y-42000D02*
Y-32250D01*
X-2500Y23570D02*
X-1000D01*
Y26502D01*
X20750Y50182D02*
X22568Y52000D01*
X20750Y42007D02*
Y50182D01*
X123995Y47980D02*
X131650D01*
X123995Y41078D02*
Y47980D01*
X2500Y23570D02*
Y25002D01*
X-7180Y26640D02*
X4930Y38750D01*
X-1000Y26502D02*
X8248Y35750D01*
X2500Y25002D02*
X15748Y38250D01*
X121167D01*
X123995Y41078D01*
X8248Y35750D02*
X9005D01*
X14505Y41250D01*
X19993D01*
X20750Y42007D01*
X7763Y38750D02*
X13263Y44250D01*
X16000D01*
Y46750D01*
X4930Y38750D02*
X7763D01*
X7500Y23570D02*
Y25002D01*
X17748Y35250D01*
X19248Y31750D02*
X84500D01*
X157570Y48500D02*
X183000D01*
X157050Y47980D02*
X157570Y48500D01*
X17748Y35250D02*
X153750D01*
X157050Y38550D01*
Y47980D01*
X12500Y23570D02*
Y25002D01*
X19248Y31750D01*
X-66000Y186000D02*
X-39250D01*
X-35000Y190250D01*
X84500Y31750D02*
X93000Y23250D01*
X105500Y10750D01*
X23570Y7500D02*
X32250D01*
X61000Y184000D02*
X70500Y193500D01*
X123250Y-149250D02*
X126000Y-152000D01*
X30070Y-16250D02*
X44750D01*
X172250Y-42000D02*
X183000D01*
X196000Y-29000D01*
X171000Y-99000D02*
Y-87000D01*
X23570Y-2500D02*
X32500D01*
X23570Y-7500D02*
X25070Y-9000D01*
X38000D01*
X32250Y7500D02*
X33250Y8500D01*
X23570Y-12500D02*
X26320D01*
X30070Y-16250D01*
X15750Y63250D02*
X24750Y72250D01*
X22568Y52000D02*
X114930D01*
X118950Y47980D01*
X123250Y-149250D02*
Y-122500D01*
X157000Y-73000D02*
X171000Y-87000D01*
X157000Y-73000D02*
Y-72500D01*
X70500Y193500D02*
X77375Y186625D01*
X94125D01*
X24750Y72250D02*
X28000Y69000D01*
X64500D01*
D27*
X-1000Y38320D02*
Y92000D01*
X-3589Y37250D02*
X-2070D01*
X-1000Y38320D01*
X-12500Y28339D02*
X-3589Y37250D01*
X-12500Y23570D02*
Y28339D01*
D28*
X-132000Y-12000D02*
D03*
X500Y-10500D02*
D03*
X12250D02*
D03*
Y750D02*
D03*
X-11500Y-9750D02*
D03*
X0Y0D02*
D03*
X-92750Y-142500D02*
D03*
X-68250Y92250D02*
D03*
X-54000Y6750D02*
D03*
X93000Y23250D02*
D03*
X-35000Y190250D02*
D03*
X172250Y-42000D02*
D03*
X44750Y-16250D02*
D03*
X38000Y-9000D02*
D03*
X33250Y8500D02*
D03*
X32500Y-2500D02*
D03*
X-11750Y12000D02*
D03*
X0D02*
D03*
X11500D02*
D03*
X-11500Y1500D02*
D03*
X-83500Y32500D02*
D03*
X-120500D02*
D03*
X-116750Y8750D02*
D03*
X-84000Y6750D02*
D03*
X144350Y58230D02*
D03*
X183000Y68750D02*
D03*
X-24250Y157250D02*
D03*
X95250Y-89750D02*
D03*
X82500Y85750D02*
D03*
X36250Y46750D02*
D03*
X40250Y-53000D02*
D03*
X123250Y-122500D02*
D03*
X157000Y-72500D02*
D03*
X94125Y186625D02*
D03*
X115500Y23250D02*
D03*
X64500Y69000D02*
D03*
X-24000Y-45000D02*
D03*
M02*
