%FSLAX44Y44*%
%MOMM*%
G71*
G01*
G75*
G04 Layer_Color=65535*
%ADD10R,0.6000X0.5000*%
%ADD11R,0.5000X0.6000*%
%ADD12R,0.5000X0.5000*%
%ADD13R,1.4000X1.2000*%
%ADD14R,0.2500X0.5000*%
%ADD15C,1.5000*%
%ADD16R,0.2500X0.4000*%
%ADD17R,0.4000X0.2500*%
%ADD18R,3.2000X3.2000*%
%ADD19R,0.5590X1.1940*%
%ADD20R,0.9000X1.3000*%
%ADD21R,0.6000X1.2000*%
%ADD22R,0.6000X2.0000*%
%ADD23C,4.0000*%
%ADD24C,0.2000*%
%ADD25C,0.1500*%
%ADD26C,0.3000*%
%ADD27C,0.5000*%
%ADD28C,0.4500*%
%ADD29R,6.0700X6.0700*%
%ADD30C,0.2540*%
%ADD31C,0.0508*%
%ADD32C,0.1000*%
D24*
X163000Y76425D02*
G03*
X163000Y70075I0J-3175D01*
G01*
X35750Y-165000D02*
X47750D01*
X35750D02*
Y-143000D01*
X47750D01*
Y-165000D02*
Y-143000D01*
X-58000Y-143750D02*
X-46000D01*
Y-163750D02*
Y-143750D01*
X-58000Y-163750D02*
X-46000D01*
X-58000D02*
Y-143750D01*
X-33750Y61250D02*
Y73250D01*
X-11750D01*
Y61250D02*
Y73250D01*
X-33750Y61250D02*
X-11750D01*
X-33500Y44500D02*
Y56500D01*
X-11500D01*
Y44500D02*
Y56500D01*
X-33500Y44500D02*
X-11500D01*
X-32000Y29250D02*
X-12000D01*
Y39250D01*
X-32000D02*
X-12000D01*
X-32000Y29250D02*
Y39250D01*
X-126500Y36750D02*
X-114500D01*
X-126500D02*
Y58750D01*
X-114500D01*
Y36750D02*
Y58750D01*
X-89500Y36750D02*
X-77500D01*
X-89500D02*
Y58750D01*
X-77500D01*
Y36750D02*
Y58750D01*
X-52750Y50250D02*
X-40750D01*
Y28250D02*
Y50250D01*
X-52750Y28250D02*
X-40750D01*
X-52750D02*
Y50250D01*
X-79750Y750D02*
Y12750D01*
X-57750D01*
Y750D02*
Y12750D01*
X-79750Y750D02*
X-57750D01*
X-63500Y-28000D02*
X-51500D01*
X-63500D02*
Y-6000D01*
X-51500D01*
Y-28000D02*
Y-6000D01*
X-88000Y-28000D02*
X-76000D01*
X-88000D02*
Y-6000D01*
X-76000D01*
Y-28000D02*
Y-6000D01*
X-111000Y-17000D02*
X-95000D01*
Y-7000D01*
X-111000D02*
X-95000D01*
X-111000Y-17000D02*
Y-7000D01*
X-127000Y-28000D02*
X-115000D01*
X-127000D02*
Y-6000D01*
X-115000D01*
Y-28000D02*
Y-6000D01*
X-112500Y2750D02*
Y24750D01*
Y2750D02*
X-100500D01*
Y24750D01*
X-112500D02*
X-100500D01*
X-58000Y-63000D02*
X-46000D01*
X-58000D02*
Y-41000D01*
X-46000D01*
Y-63000D02*
Y-41000D01*
X-40000Y-41250D02*
X-28000D01*
Y-63250D02*
Y-41250D01*
X-40000Y-63250D02*
X-28000D01*
X-40000D02*
Y-41250D01*
X24000Y-59000D02*
X36000D01*
X24000D02*
Y-37000D01*
X36000D01*
Y-59000D02*
Y-37000D01*
X99500Y4750D02*
X121500D01*
Y16750D01*
X99500D02*
X121500D01*
X99500Y4750D02*
Y16750D01*
X69500Y8500D02*
X81500D01*
Y-13500D02*
Y8500D01*
X69500Y-13500D02*
X81500D01*
X69500D02*
Y8500D01*
X-24570Y23570D02*
X-23570Y24570D01*
X177000Y64500D02*
X189000D01*
Y42500D02*
Y64500D01*
X177000Y42500D02*
X189000D01*
X177000D02*
Y64500D01*
X163000Y76425D02*
Y93250D01*
Y53250D02*
Y70075D01*
X113000Y53250D02*
Y93250D01*
X-4500Y110000D02*
Y128000D01*
X-38500Y110000D02*
X-4500D01*
X-38500D02*
Y128000D01*
X-4500D01*
X-63750Y76250D02*
X-51750D01*
X-63750D02*
Y98250D01*
X-51750D01*
Y76250D02*
Y98250D01*
X-26500Y105000D02*
X5500D01*
X-26500Y79000D02*
Y105000D01*
Y79000D02*
X5500D01*
Y105000D01*
X1500Y110000D02*
Y128000D01*
X35500D01*
Y110000D02*
Y128000D01*
X1500Y110000D02*
X35500D01*
X32000Y40750D02*
Y52750D01*
X10000Y40750D02*
X32000D01*
X10000D02*
Y52750D01*
X32000D01*
X31750Y57250D02*
Y69250D01*
X9750Y57250D02*
X31750D01*
X9750D02*
Y69250D01*
X31750D01*
X-121581Y78664D02*
X-123247Y76998D01*
Y73666D01*
X-121581Y72000D01*
X-114916D01*
X-113250Y73666D01*
Y76998D01*
X-114916Y78664D01*
X-113250Y81997D02*
Y85329D01*
Y83663D01*
X-123247D01*
X-121581Y81997D01*
X-123247Y90327D02*
Y96992D01*
X-121581D01*
X-114916Y90327D01*
X-113250D01*
X-70331Y42664D02*
X-71997Y40998D01*
Y37666D01*
X-70331Y36000D01*
X-63666D01*
X-62000Y37666D01*
Y40998D01*
X-63666Y42664D01*
X-62000Y45997D02*
Y49329D01*
Y47663D01*
X-71997D01*
X-70331Y45997D01*
X-71997Y60992D02*
Y54327D01*
X-66998D01*
X-68664Y57660D01*
Y59326D01*
X-66998Y60992D01*
X-63666D01*
X-62000Y59326D01*
Y55994D01*
X-63666Y54327D01*
X-48836Y64331D02*
X-50502Y65997D01*
X-53834D01*
X-55500Y64331D01*
Y57666D01*
X-53834Y56000D01*
X-50502D01*
X-48836Y57666D01*
X-38839Y65997D02*
X-45503D01*
Y60998D01*
X-42171Y62664D01*
X-40505D01*
X-38839Y60998D01*
Y57666D01*
X-40505Y56000D01*
X-43837D01*
X-45503Y57666D01*
X-70835Y25831D02*
X-72502Y27497D01*
X-75834D01*
X-77500Y25831D01*
Y19166D01*
X-75834Y17500D01*
X-72502D01*
X-70835Y19166D01*
X-67503Y25831D02*
X-65837Y27497D01*
X-62505D01*
X-60839Y25831D01*
Y24165D01*
X-62505Y22498D01*
X-60839Y20832D01*
Y19166D01*
X-62505Y17500D01*
X-65837D01*
X-67503Y19166D01*
Y20832D01*
X-65837Y22498D01*
X-67503Y24165D01*
Y25831D01*
X-65837Y22498D02*
X-62505D01*
X-44331Y-21086D02*
X-45997Y-22752D01*
Y-26084D01*
X-44331Y-27750D01*
X-37666D01*
X-36000Y-26084D01*
Y-22752D01*
X-37666Y-21086D01*
X-36000Y-17753D02*
Y-14421D01*
Y-16087D01*
X-45997D01*
X-44331Y-17753D01*
X-36000Y-2758D02*
Y-9423D01*
X-42664Y-2758D01*
X-44331D01*
X-45997Y-4424D01*
Y-7756D01*
X-44331Y-9423D01*
X-85831Y-48335D02*
X-87497Y-50002D01*
Y-53334D01*
X-85831Y-55000D01*
X-79166D01*
X-77500Y-53334D01*
Y-50002D01*
X-79166Y-48335D01*
X-77500Y-45003D02*
Y-41671D01*
Y-43337D01*
X-87497D01*
X-85831Y-45003D01*
X-77500Y-36673D02*
Y-33340D01*
Y-35006D01*
X-87497D01*
X-85831Y-36673D01*
X-107497Y-39750D02*
X-97500D01*
Y-33085D01*
Y-23089D02*
Y-29753D01*
X-104164Y-23089D01*
X-105831D01*
X-107497Y-24755D01*
Y-28087D01*
X-105831Y-29753D01*
X-121831Y-51086D02*
X-123497Y-52752D01*
Y-56084D01*
X-121831Y-57750D01*
X-115166D01*
X-113500Y-56084D01*
Y-52752D01*
X-115166Y-51086D01*
X-113500Y-47753D02*
Y-44421D01*
Y-46087D01*
X-123497D01*
X-121831Y-47753D01*
Y-39423D02*
X-123497Y-37756D01*
Y-34424D01*
X-121831Y-32758D01*
X-120164D01*
X-118498Y-34424D01*
Y-36090D01*
Y-34424D01*
X-116832Y-32758D01*
X-115166D01*
X-113500Y-34424D01*
Y-37756D01*
X-115166Y-39423D01*
X-72581Y-58586D02*
X-74247Y-60252D01*
Y-63584D01*
X-72581Y-65250D01*
X-65916D01*
X-64250Y-63584D01*
Y-60252D01*
X-65916Y-58586D01*
X-64250Y-55253D02*
Y-51921D01*
Y-53587D01*
X-74247D01*
X-72581Y-55253D01*
X-64250Y-41924D02*
X-74247D01*
X-69248Y-46923D01*
Y-40258D01*
X48664Y-35419D02*
X46998Y-33753D01*
X43666D01*
X42000Y-35419D01*
Y-42084D01*
X43666Y-43750D01*
X46998D01*
X48664Y-42084D01*
X51997Y-43750D02*
X55329D01*
X53663D01*
Y-33753D01*
X51997Y-35419D01*
X60327Y-42084D02*
X61994Y-43750D01*
X65326D01*
X66992Y-42084D01*
Y-35419D01*
X65326Y-33753D01*
X61994D01*
X60327Y-35419D01*
Y-37085D01*
X61994Y-38752D01*
X66992D01*
X129000Y6250D02*
Y16247D01*
X133998D01*
X135665Y14581D01*
Y11248D01*
X133998Y9582D01*
X129000D01*
X132332D02*
X135665Y6250D01*
X155658D02*
X148994D01*
X155658Y12915D01*
Y14581D01*
X153992Y16247D01*
X150660D01*
X148994Y14581D01*
X105500Y-13003D02*
X112164D01*
X108832D01*
Y-23000D01*
X115497D02*
Y-13003D01*
X120495D01*
X122161Y-14669D01*
Y-18002D01*
X120495Y-19668D01*
X115497D01*
X142155Y-23000D02*
X135490D01*
X142155Y-16336D01*
Y-14669D01*
X140489Y-13003D01*
X137156D01*
X135490Y-14669D01*
X75415Y22331D02*
X73748Y23997D01*
X70416D01*
X68750Y22331D01*
Y15666D01*
X70416Y14000D01*
X73748D01*
X75415Y15666D01*
X78747Y14000D02*
X82079D01*
X80413D01*
Y23997D01*
X78747Y22331D01*
X34250Y27497D02*
Y19166D01*
X35916Y17500D01*
X39248D01*
X40915Y19166D01*
Y27497D01*
X44247Y17500D02*
X47579D01*
X45913D01*
Y27497D01*
X44247Y25831D01*
X196419Y47165D02*
X194753Y45498D01*
Y42166D01*
X196419Y40500D01*
X203084D01*
X204750Y42166D01*
Y45498D01*
X203084Y47165D01*
X204750Y50497D02*
Y53829D01*
Y52163D01*
X194753D01*
X196419Y50497D01*
Y58827D02*
X194753Y60494D01*
Y63826D01*
X196419Y65492D01*
X203084D01*
X204750Y63826D01*
Y60494D01*
X203084Y58827D01*
X196419D01*
X93753Y66000D02*
X102084D01*
X103750Y67666D01*
Y70998D01*
X102084Y72664D01*
X93753D01*
X103750Y85994D02*
Y89326D01*
Y87660D01*
X93753D01*
X95419Y85994D01*
X-27336Y142831D02*
X-29002Y144497D01*
X-32334D01*
X-34000Y142831D01*
Y136166D01*
X-32334Y134500D01*
X-29002D01*
X-27336Y136166D01*
X-24003Y134500D02*
X-20671D01*
X-22337D01*
Y144497D01*
X-24003Y142831D01*
X-9008Y144497D02*
X-12340Y142831D01*
X-15673Y139498D01*
Y136166D01*
X-14006Y134500D01*
X-10674D01*
X-9008Y136166D01*
Y137832D01*
X-10674Y139498D01*
X-15673D01*
X-57586Y113831D02*
X-59252Y115497D01*
X-62584D01*
X-64250Y113831D01*
Y107166D01*
X-62584Y105500D01*
X-59252D01*
X-57586Y107166D01*
X-54253Y115497D02*
X-47589D01*
Y113831D01*
X-54253Y107166D01*
Y105500D01*
X13500Y99997D02*
Y90000D01*
X20164D01*
X23497D02*
X26829D01*
X25163D01*
Y99997D01*
X23497Y98331D01*
X17665Y142831D02*
X15998Y144497D01*
X12666D01*
X11000Y142831D01*
Y136166D01*
X12666Y134500D01*
X15998D01*
X17665Y136166D01*
X27661Y134500D02*
X20997D01*
X27661Y141165D01*
Y142831D01*
X25995Y144497D01*
X22663D01*
X20997Y142831D01*
X48415Y51581D02*
X46748Y53247D01*
X43416D01*
X41750Y51581D01*
Y44916D01*
X43416Y43250D01*
X46748D01*
X48415Y44916D01*
X58411Y53247D02*
X55079Y51581D01*
X51747Y48248D01*
Y44916D01*
X53413Y43250D01*
X56745D01*
X58411Y44916D01*
Y46582D01*
X56745Y48248D01*
X51747D01*
X48415Y67581D02*
X46748Y69247D01*
X43416D01*
X41750Y67581D01*
Y60916D01*
X43416Y59250D01*
X46748D01*
X48415Y60916D01*
X51747Y67581D02*
X53413Y69247D01*
X56745D01*
X58411Y67581D01*
Y65915D01*
X56745Y64248D01*
X55079D01*
X56745D01*
X58411Y62582D01*
Y60916D01*
X56745Y59250D01*
X53413D01*
X51747Y60916D01*
D30*
X-58000Y-167750D02*
X-46000D01*
D31*
X17132Y-205184D02*
X22720D01*
X-31128D02*
X-27064D01*
X15608Y-204676D02*
X24752D01*
X-33160D02*
X-25540D01*
X14592Y-204168D02*
X26276D01*
X-34684D02*
X-24016D01*
X13576Y-203660D02*
X27800D01*
X-36208D02*
X-23508D01*
X13068Y-203152D02*
X29324D01*
X-38240D02*
X-22492D01*
X12560Y-202644D02*
X31356D01*
X-39764D02*
X-21984D01*
X12052Y-202136D02*
X32880D01*
X-41288D02*
X-21476D01*
X11544Y-201628D02*
X34404D01*
X-19444D02*
X-18936D01*
X-42812D02*
X-20968D01*
X11544Y-201120D02*
X35928D01*
X-19444D02*
X-18936D01*
X-44336D02*
X-20460D01*
X11036Y-200612D02*
X37960D01*
X-19444D02*
X-18936D01*
X-45860D02*
X-20460D01*
X10528Y-200104D02*
X39484D01*
X-19444D02*
X-18936D01*
X-47892D02*
X-19952D01*
X10528Y-199596D02*
X41008D01*
X-19444D02*
X-18936D01*
X-49416D02*
X-19952D01*
X10020Y-199088D02*
X42532D01*
X-50940D02*
X-18936D01*
X9512Y-198580D02*
X44056D01*
X-52464D02*
X-18936D01*
X9512Y-198072D02*
X46088D01*
X-53988D02*
X-18936D01*
X9512Y-197564D02*
X47612D01*
X-55512D02*
X-18936D01*
X9512Y-197056D02*
X49136D01*
X-57544D02*
X-18936D01*
X9512Y-196548D02*
X50660D01*
X-59068D02*
X-18936D01*
X9512Y-196040D02*
X52692D01*
X-60592D02*
X-18936D01*
X9512Y-195532D02*
X54216D01*
X-62116D02*
X-18936D01*
X9512Y-195024D02*
X55740D01*
X-63640D02*
X-18936D01*
X9512Y-194516D02*
X57264D01*
X-65164D02*
X-18936D01*
X22720Y-194008D02*
X58788D01*
X9512D02*
X21704D01*
X-67196D02*
X-18936D01*
X24244Y-193500D02*
X60820D01*
X9512D02*
X21704D01*
X-30620D02*
X-18936D01*
X-68720D02*
X-32144D01*
X26276Y-192992D02*
X61836D01*
X9512D02*
X21704D01*
X-30620D02*
X-18936D01*
X-70244D02*
X-33668D01*
X27800Y-192484D02*
X62852D01*
X9512D02*
X21704D01*
X-30620D02*
X-18936D01*
X-71260D02*
X-35192D01*
X29324Y-191976D02*
X63868D01*
X9512D02*
X21704D01*
X-30620D02*
X-18936D01*
X-71768D02*
X-36716D01*
X30848Y-191468D02*
X64376D01*
X9512D02*
X21704D01*
X-30620D02*
X-18936D01*
X-72784D02*
X-38240D01*
X32372Y-190960D02*
X64884D01*
X9512D02*
X21704D01*
X-30620D02*
X-18936D01*
X-73292D02*
X-39764D01*
X34404Y-190452D02*
X65392D01*
X9512D02*
X21704D01*
X-30620D02*
X-18936D01*
X-73800D02*
X-41796D01*
X35928Y-189944D02*
X65900D01*
X9512D02*
X21704D01*
X-30620D02*
X-18936D01*
X-74308D02*
X-43320D01*
X37452Y-189436D02*
X66408D01*
X9512D02*
X21704D01*
X-30620D02*
X-18936D01*
X-74816D02*
X-44844D01*
X38976Y-188928D02*
X66408D01*
X9512D02*
X21704D01*
X-30620D02*
X-18936D01*
X-74816D02*
X-46368D01*
X41008Y-188420D02*
X66916D01*
X9512D02*
X21704D01*
X-30620D02*
X-18936D01*
X-75324D02*
X-47892D01*
X42532Y-187912D02*
X67424D01*
X9512D02*
X21704D01*
X-30620D02*
X-18936D01*
X-75324D02*
X-49416D01*
X44056Y-187404D02*
X67424D01*
X9512D02*
X21704D01*
X-30620D02*
X-18936D01*
X-75832D02*
X-51448D01*
X45580Y-186896D02*
X67424D01*
X9512D02*
X21704D01*
X-30620D02*
X-18936D01*
X-75832D02*
X-52972D01*
X47104Y-186388D02*
X67932D01*
X9512D02*
X21704D01*
X-30620D02*
X-18936D01*
X-75832D02*
X-54496D01*
X49136Y-185880D02*
X67932D01*
X9512D02*
X21704D01*
X-30620D02*
X-18936D01*
X-76340D02*
X-56020D01*
X50660Y-185372D02*
X67932D01*
X9512D02*
X21704D01*
X-30620D02*
X-18936D01*
X-76340D02*
X-57544D01*
X52184Y-184864D02*
X67932D01*
X9512D02*
X21704D01*
X-30620D02*
X-18936D01*
X-76340D02*
X-59068D01*
X53200Y-184356D02*
X67932D01*
X9512D02*
X21704D01*
X-30620D02*
X-18936D01*
X-76340D02*
X-60592D01*
X53708Y-183848D02*
X67932D01*
X9512D02*
X21704D01*
X-30620D02*
X-18936D01*
X-76340D02*
X-61100D01*
X54724Y-183340D02*
X67932D01*
X9512D02*
X21704D01*
X-30620D02*
X-18936D01*
X-76340D02*
X-61608D01*
X55232Y-182832D02*
X67932D01*
X9512D02*
X21704D01*
X-30620D02*
X-18936D01*
X-76340D02*
X-62624D01*
X55740Y-182324D02*
X67932D01*
X9512D02*
X21704D01*
X-30620D02*
X-18936D01*
X-76340D02*
X-62624D01*
X55740Y-181816D02*
X67932D01*
X9512D02*
X21704D01*
X-30620D02*
X-18936D01*
X-76340D02*
X-63132D01*
X56248Y-181308D02*
X67932D01*
X9512D02*
X21704D01*
X-30620D02*
X-18936D01*
X-76340D02*
X-63640D01*
X56756Y-180800D02*
X67932D01*
X9512D02*
X21704D01*
X-30620D02*
X-18936D01*
X-76340D02*
X-63640D01*
X56756Y-180292D02*
X67932D01*
X9512D02*
X21704D01*
X-30620D02*
X-18936D01*
X-76340D02*
X-64148D01*
X56756Y-179784D02*
X67932D01*
X9512D02*
X21704D01*
X-30620D02*
X-18936D01*
X-76340D02*
X-64148D01*
X57264Y-179276D02*
X67932D01*
X9512D02*
X21704D01*
X-30620D02*
X-18936D01*
X-76340D02*
X-64656D01*
X57264Y-178768D02*
X67932D01*
X9512D02*
X21704D01*
X-30620D02*
X-18936D01*
X-76340D02*
X-64656D01*
X57264Y-178260D02*
X67932D01*
X9512D02*
X21704D01*
X-30620D02*
X-18936D01*
X-76340D02*
X-64656D01*
X57264Y-177752D02*
X67932D01*
X9512D02*
X21704D01*
X-30620D02*
X-18936D01*
X-76340D02*
X-64656D01*
X57264Y-177244D02*
X67932D01*
X9512D02*
X21704D01*
X-30620D02*
X-18936D01*
X-76340D02*
X-64656D01*
X57264Y-176736D02*
X67932D01*
X9512D02*
X21704D01*
X-30620D02*
X-18936D01*
X-76340D02*
X-64656D01*
X57264Y-176228D02*
X67932D01*
X9512D02*
X21704D01*
X-30620D02*
X-18936D01*
X-76340D02*
X-64656D01*
X57264Y-175720D02*
X67932D01*
X9512D02*
X21704D01*
X-30620D02*
X-18936D01*
X-76340D02*
X-64656D01*
X57264Y-175212D02*
X67932D01*
X9512D02*
X21704D01*
X-30620D02*
X-18936D01*
X-76340D02*
X-64656D01*
X57264Y-174704D02*
X67932D01*
X9512D02*
X21704D01*
X-30620D02*
X-18936D01*
X-76340D02*
X-64656D01*
X57264Y-174196D02*
X67932D01*
X9512D02*
X21704D01*
X-30620D02*
X-18936D01*
X-76340D02*
X-64656D01*
X57264Y-173688D02*
X67932D01*
X9512D02*
X21704D01*
X-30620D02*
X-18936D01*
X-76340D02*
X-64656D01*
X57264Y-173180D02*
X67932D01*
X9512D02*
X21704D01*
X-30620D02*
X-18936D01*
X-76340D02*
X-64656D01*
X57264Y-172672D02*
X67932D01*
X9512D02*
X21704D01*
X-30620D02*
X-18936D01*
X-76340D02*
X-64656D01*
X57264Y-172164D02*
X67932D01*
X9512D02*
X21704D01*
X-30620D02*
X-18936D01*
X-76340D02*
X-64656D01*
X57264Y-171656D02*
X67932D01*
X9512D02*
X21704D01*
X-30620D02*
X-18936D01*
X-76340D02*
X-64656D01*
X57264Y-171148D02*
X67932D01*
X9512D02*
X21704D01*
X-30620D02*
X-18936D01*
X-76340D02*
X-64656D01*
X57264Y-170640D02*
X67932D01*
X9512D02*
X21704D01*
X-30620D02*
X-18936D01*
X-76340D02*
X-64656D01*
X57264Y-170132D02*
X67932D01*
X9512D02*
X21704D01*
X-30620D02*
X-18936D01*
X-76340D02*
X-64656D01*
X57264Y-169624D02*
X67932D01*
X9512D02*
X21704D01*
X-30620D02*
X-18936D01*
X-76340D02*
X-64656D01*
X57264Y-169116D02*
X67932D01*
X9512D02*
X21704D01*
X-30620D02*
X-18936D01*
X-76340D02*
X-64656D01*
X57264Y-168608D02*
X67932D01*
X9512D02*
X21704D01*
X-30620D02*
X-18936D01*
X-76340D02*
X-64656D01*
X57264Y-168100D02*
X67932D01*
X9512D02*
X21704D01*
X-30620D02*
X-18936D01*
X-76340D02*
X-64656D01*
X57264Y-167592D02*
X67932D01*
X9512D02*
X21704D01*
X-30620D02*
X-18936D01*
X-76340D02*
X-64656D01*
X57264Y-167084D02*
X67932D01*
X9512D02*
X21704D01*
X-30620D02*
X-18936D01*
X-76340D02*
X-64656D01*
X57264Y-166576D02*
X67932D01*
X9512D02*
X21704D01*
X-30620D02*
X-18936D01*
X-76340D02*
X-64656D01*
X57264Y-166068D02*
X67932D01*
X9512D02*
X21704D01*
X-30620D02*
X-18936D01*
X-76340D02*
X-64656D01*
X57264Y-165560D02*
X67932D01*
X9512D02*
X21704D01*
X-30620D02*
X-18936D01*
X-76340D02*
X-64656D01*
X57264Y-165052D02*
X67932D01*
X9512D02*
X21704D01*
X-30620D02*
X-18936D01*
X-76340D02*
X-64656D01*
X57264Y-164544D02*
X67932D01*
X9512D02*
X21704D01*
X-30620D02*
X-18936D01*
X-76340D02*
X-64656D01*
X57264Y-164036D02*
X67932D01*
X9512D02*
X21704D01*
X-30620D02*
X-18936D01*
X-76340D02*
X-64656D01*
X57264Y-163528D02*
X67932D01*
X9512D02*
X21704D01*
X-30620D02*
X-18936D01*
X-76340D02*
X-64656D01*
X57264Y-163020D02*
X67932D01*
X9512D02*
X21704D01*
X-30620D02*
X-18936D01*
X-76340D02*
X-64656D01*
X57264Y-162512D02*
X67932D01*
X9512D02*
X21704D01*
X-30620D02*
X-18936D01*
X-76340D02*
X-64656D01*
X57264Y-162004D02*
X67932D01*
X9512D02*
X21704D01*
X-30620D02*
X-18936D01*
X-76340D02*
X-64656D01*
X57264Y-161496D02*
X67932D01*
X9512D02*
X21704D01*
X-30620D02*
X-18936D01*
X-76340D02*
X-64656D01*
X57264Y-160988D02*
X67932D01*
X9512D02*
X21704D01*
X-30620D02*
X-18936D01*
X-76340D02*
X-64656D01*
X57264Y-160480D02*
X67932D01*
X9512D02*
X21704D01*
X-30620D02*
X-18936D01*
X-76340D02*
X-64656D01*
X57264Y-159972D02*
X67932D01*
X9512D02*
X21704D01*
X-30620D02*
X-18936D01*
X-76340D02*
X-64656D01*
X57264Y-159464D02*
X67932D01*
X9512D02*
X21704D01*
X-30620D02*
X-18936D01*
X-76340D02*
X-64656D01*
X57264Y-158956D02*
X67932D01*
X9512D02*
X21704D01*
X-30620D02*
X-18936D01*
X-76340D02*
X-64656D01*
X57264Y-158448D02*
X67932D01*
X9512D02*
X21704D01*
X-30620D02*
X-18936D01*
X-76340D02*
X-64656D01*
X57264Y-157940D02*
X67932D01*
X9512D02*
X21704D01*
X-30620D02*
X-18936D01*
X-76340D02*
X-64656D01*
X57264Y-157432D02*
X67932D01*
X9512D02*
X21704D01*
X-30620D02*
X-18936D01*
X-76340D02*
X-64656D01*
X57264Y-156924D02*
X67932D01*
X9512D02*
X21704D01*
X-30620D02*
X-18936D01*
X-76340D02*
X-64656D01*
X57264Y-156416D02*
X67932D01*
X9512D02*
X21704D01*
X-30620D02*
X-18936D01*
X-76340D02*
X-64656D01*
X57264Y-155908D02*
X67932D01*
X9512D02*
X21704D01*
X-30620D02*
X-18936D01*
X-76340D02*
X-64656D01*
X57264Y-155400D02*
X67932D01*
X9512D02*
X21704D01*
X-30620D02*
X-18936D01*
X-76340D02*
X-64656D01*
X57264Y-154892D02*
X67932D01*
X9512D02*
X21704D01*
X-30620D02*
X-18936D01*
X-76340D02*
X-64656D01*
X57264Y-154384D02*
X67932D01*
X9512D02*
X21704D01*
X-30620D02*
X-18936D01*
X-76340D02*
X-64656D01*
X57264Y-153876D02*
X67932D01*
X9512D02*
X21704D01*
X-30620D02*
X-18936D01*
X-76340D02*
X-64656D01*
X57264Y-153368D02*
X67932D01*
X9512D02*
X21704D01*
X-30620D02*
X-18936D01*
X-76340D02*
X-64656D01*
X57264Y-152860D02*
X67932D01*
X9512D02*
X21704D01*
X-30620D02*
X-18936D01*
X-76340D02*
X-64656D01*
X57264Y-152352D02*
X67932D01*
X9512D02*
X21704D01*
X-30620D02*
X-18936D01*
X-76340D02*
X-64656D01*
X57264Y-151844D02*
X67932D01*
X9512D02*
X21704D01*
X-30620D02*
X-18936D01*
X-76340D02*
X-64656D01*
X57264Y-151336D02*
X67932D01*
X9512D02*
X21704D01*
X-30620D02*
X-18936D01*
X-76340D02*
X-64656D01*
X57264Y-150828D02*
X67932D01*
X9512D02*
X21704D01*
X-30620D02*
X-18936D01*
X-76340D02*
X-64656D01*
X57264Y-150320D02*
X67932D01*
X9512D02*
X21704D01*
X-30620D02*
X-18936D01*
X-76340D02*
X-64656D01*
X57264Y-149812D02*
X67932D01*
X9512D02*
X21704D01*
X-30620D02*
X-18936D01*
X-76340D02*
X-64656D01*
X57264Y-149304D02*
X67932D01*
X9512D02*
X21704D01*
X-30620D02*
X-18936D01*
X-76340D02*
X-64656D01*
X57264Y-148796D02*
X67932D01*
X9512D02*
X21704D01*
X-30620D02*
X-18936D01*
X-76340D02*
X-64656D01*
X57264Y-148288D02*
X67932D01*
X9512D02*
X21704D01*
X-30620D02*
X-18936D01*
X-76340D02*
X-64656D01*
X57264Y-147780D02*
X67932D01*
X9512D02*
X21704D01*
X-30620D02*
X-18936D01*
X-76340D02*
X-64656D01*
X57264Y-147272D02*
X67932D01*
X9512D02*
X21704D01*
X-30620D02*
X-18936D01*
X-76340D02*
X-64656D01*
X57264Y-146764D02*
X67932D01*
X9512D02*
X21704D01*
X-30620D02*
X-18936D01*
X-76340D02*
X-64656D01*
X57264Y-146256D02*
X67932D01*
X9512D02*
X21704D01*
X-30620D02*
X-18936D01*
X-76340D02*
X-64656D01*
X57264Y-145748D02*
X67932D01*
X9512D02*
X21704D01*
X-30620D02*
X-18936D01*
X-76340D02*
X-64656D01*
X57264Y-145240D02*
X67932D01*
X9512D02*
X21704D01*
X-30620D02*
X-18936D01*
X-76340D02*
X-64656D01*
X57264Y-144732D02*
X67932D01*
X9512D02*
X21704D01*
X-30620D02*
X-18936D01*
X-76340D02*
X-64656D01*
X57264Y-144224D02*
X67932D01*
X9512D02*
X21704D01*
X-30620D02*
X-18936D01*
X-76340D02*
X-64656D01*
X57264Y-143716D02*
X67932D01*
X9512D02*
X21704D01*
X-30620D02*
X-18936D01*
X-76340D02*
X-64656D01*
X57264Y-143208D02*
X67932D01*
X9512D02*
X21704D01*
X-30620D02*
X-18936D01*
X-76340D02*
X-64656D01*
X57264Y-142700D02*
X67932D01*
X9512D02*
X21704D01*
X-30620D02*
X-18936D01*
X-76340D02*
X-64656D01*
X57264Y-142192D02*
X67932D01*
X9512D02*
X21704D01*
X-30620D02*
X-18936D01*
X-76340D02*
X-64656D01*
X57264Y-141684D02*
X67932D01*
X9512D02*
X21704D01*
X-30620D02*
X-18936D01*
X-76340D02*
X-64656D01*
X57264Y-141176D02*
X67932D01*
X9512D02*
X21704D01*
X-30620D02*
X-18936D01*
X-76340D02*
X-64656D01*
X57264Y-140668D02*
X67932D01*
X9512D02*
X21704D01*
X-30620D02*
X-18936D01*
X-76340D02*
X-64656D01*
X57264Y-140160D02*
X67932D01*
X9512D02*
X21704D01*
X-30620D02*
X-18936D01*
X-76340D02*
X-64656D01*
X57264Y-139652D02*
X67932D01*
X9512D02*
X21704D01*
X-30620D02*
X-18936D01*
X-76340D02*
X-64656D01*
X57264Y-139144D02*
X67932D01*
X9512D02*
X21704D01*
X-30620D02*
X-18936D01*
X-76340D02*
X-64656D01*
X57264Y-138636D02*
X67932D01*
X9512D02*
X21704D01*
X-30620D02*
X-18936D01*
X-76340D02*
X-64656D01*
X57264Y-138128D02*
X67932D01*
X9512D02*
X21704D01*
X-30620D02*
X-18936D01*
X-76340D02*
X-64656D01*
X57264Y-137620D02*
X67932D01*
X9512D02*
X21704D01*
X-30620D02*
X-18936D01*
X-76340D02*
X-64656D01*
X57264Y-137112D02*
X67932D01*
X9512D02*
X21704D01*
X-30620D02*
X-18936D01*
X-76340D02*
X-64656D01*
X57264Y-136604D02*
X67932D01*
X9512D02*
X21704D01*
X-30620D02*
X-18936D01*
X-76340D02*
X-64656D01*
X57264Y-136096D02*
X67932D01*
X9512D02*
X21704D01*
X-30620D02*
X-18936D01*
X-76340D02*
X-64656D01*
X57264Y-135588D02*
X67932D01*
X9512D02*
X21704D01*
X-30620D02*
X-18936D01*
X-76340D02*
X-64656D01*
X57264Y-135080D02*
X67932D01*
X9512D02*
X21704D01*
X-30620D02*
X-18936D01*
X-76340D02*
X-64656D01*
X57264Y-134572D02*
X67932D01*
X9512D02*
X21704D01*
X-30620D02*
X-18936D01*
X-76340D02*
X-64656D01*
X57264Y-134064D02*
X67932D01*
X9512D02*
X21704D01*
X-30620D02*
X-18936D01*
X-76340D02*
X-64656D01*
X57264Y-133556D02*
X67932D01*
X9512D02*
X21704D01*
X-30620D02*
X-18936D01*
X-76340D02*
X-64656D01*
X57264Y-133048D02*
X67932D01*
X9512D02*
X21704D01*
X-30620D02*
X-18936D01*
X-76340D02*
X-64656D01*
X57264Y-132540D02*
X67932D01*
X9512D02*
X21704D01*
X-30620D02*
X-18936D01*
X-76340D02*
X-64656D01*
X57264Y-132032D02*
X67932D01*
X9512D02*
X21704D01*
X-30620D02*
X-18936D01*
X-76340D02*
X-64656D01*
X57264Y-131524D02*
X67932D01*
X9512D02*
X21704D01*
X-30620D02*
X-18936D01*
X-76340D02*
X-64656D01*
X57264Y-131016D02*
X67932D01*
X9512D02*
X21704D01*
X-30620D02*
X-18936D01*
X-76340D02*
X-64656D01*
X57264Y-130508D02*
X67932D01*
X9512D02*
X21704D01*
X-30620D02*
X-18936D01*
X-76340D02*
X-64656D01*
X57264Y-130000D02*
X67932D01*
X-9284D02*
X34404D01*
X-30620D02*
X-18936D01*
X-76340D02*
X-64656D01*
X57264Y-129492D02*
X67932D01*
X-9284D02*
X35928D01*
X-30620D02*
X-18936D01*
X-76340D02*
X-64656D01*
X57264Y-128984D02*
X67932D01*
X-9284D02*
X36944D01*
X-30112D02*
X-18936D01*
X-76340D02*
X-64656D01*
X57264Y-128476D02*
X67932D01*
X-9284D02*
X37452D01*
X-30112D02*
X-18936D01*
X-76340D02*
X-64656D01*
X57264Y-127968D02*
X67932D01*
X-9284D02*
X38468D01*
X-29604D02*
X-18936D01*
X-76340D02*
X-64656D01*
X57264Y-127460D02*
X67932D01*
X-9284D02*
X38976D01*
X-29604D02*
X-18936D01*
X-76340D02*
X-64656D01*
X57264Y-126952D02*
X67932D01*
X-9284D02*
X39484D01*
X-29096D02*
X-18936D01*
X-76340D02*
X-64656D01*
X57264Y-126444D02*
X67932D01*
X-9284D02*
X39484D01*
X-29096D02*
X-18936D01*
X-76340D02*
X-64656D01*
X57264Y-125936D02*
X67932D01*
X-9284D02*
X39992D01*
X-28588D02*
X-18936D01*
X-76340D02*
X-64656D01*
X57772Y-125428D02*
X67932D01*
X-8776D02*
X40500D01*
X-28080D02*
X-18936D01*
X-76340D02*
X-64656D01*
X57772Y-124920D02*
X67932D01*
X-8776D02*
X40500D01*
X-27572D02*
X-18936D01*
X-76340D02*
X-64656D01*
X57772Y-124412D02*
X67932D01*
X-8776D02*
X41008D01*
X-27064D02*
X-18936D01*
X-76340D02*
X-64656D01*
X57772Y-123904D02*
X67932D01*
X-8268D02*
X41008D01*
X-26048D02*
X-18936D01*
X-76340D02*
X-64656D01*
X57772Y-123396D02*
X67932D01*
X-8268D02*
X41516D01*
X-25540D02*
X-18936D01*
X-76340D02*
X-64656D01*
X57772Y-122888D02*
X67932D01*
X-7760D02*
X41516D01*
X-24016D02*
X-18936D01*
X-76340D02*
X-64656D01*
X57772Y-122380D02*
X67932D01*
X-7252D02*
X41516D01*
X-21984D02*
X-18936D01*
X-76340D02*
X-64656D01*
X57772Y-121872D02*
X67932D01*
X-7252D02*
X42024D01*
X-76340D02*
X-64656D01*
X57772Y-121364D02*
X67932D01*
X-6744D02*
X42024D01*
X-76340D02*
X-64656D01*
X57772Y-120856D02*
X67932D01*
X-6236D02*
X42024D01*
X-76340D02*
X-64656D01*
X57772Y-120348D02*
X68440D01*
X-5220D02*
X42024D01*
X-76340D02*
X-64656D01*
X57772Y-119840D02*
X68440D01*
X-4712D02*
X42024D01*
X-76340D02*
X-64656D01*
X57772Y-119332D02*
X68440D01*
X-3696D02*
X42024D01*
X-76340D02*
X-64656D01*
X57772Y-118824D02*
X68440D01*
X-2680D02*
X42024D01*
X-76340D02*
X-64656D01*
X57772Y-118316D02*
X68440D01*
X-648D02*
X42024D01*
X-76340D02*
X-64656D01*
X57772Y-117808D02*
X68440D01*
X-76340D02*
X-64656D01*
X57772Y-117300D02*
X68440D01*
X-76340D02*
X-64656D01*
X57772Y-116792D02*
X68440D01*
X-76340D02*
X-64656D01*
X57772Y-116284D02*
X68440D01*
X-76340D02*
X-64656D01*
X57772Y-115776D02*
X68440D01*
X-76340D02*
X-64656D01*
X57772Y-115268D02*
X68440D01*
X-76340D02*
X-64656D01*
X57772Y-114760D02*
X68440D01*
X-76340D02*
X-64656D01*
X57772Y-114252D02*
X68440D01*
X-76340D02*
X-64656D01*
X57772Y-113744D02*
X68440D01*
X-76340D02*
X-64656D01*
X57772Y-113236D02*
X68440D01*
X-76340D02*
X-64656D01*
X57772Y-112728D02*
X68440D01*
X-76340D02*
X-64656D01*
X57772Y-112220D02*
X68440D01*
X-76340D02*
X-64656D01*
X57772Y-111712D02*
X68440D01*
X-76340D02*
X-64656D01*
X57772Y-111204D02*
X68440D01*
X-76340D02*
X-64656D01*
X57772Y-110696D02*
X68440D01*
X-76340D02*
X-64656D01*
X57772Y-110188D02*
X68440D01*
X-76340D02*
X-64656D01*
X57772Y-109680D02*
X68440D01*
X-76340D02*
X-64656D01*
X57772Y-109172D02*
X68440D01*
X-76340D02*
X-64656D01*
X57772Y-108664D02*
X68440D01*
X-76340D02*
X-64656D01*
X57772Y-108156D02*
X68440D01*
X-76340D02*
X-64656D01*
X57772Y-107648D02*
X68440D01*
X-76340D02*
X-64656D01*
X57772Y-107140D02*
X68440D01*
X-76340D02*
X-64656D01*
X57264Y-106632D02*
X68440D01*
X-76340D02*
X-64656D01*
X57264Y-106124D02*
X68440D01*
X-76340D02*
X-64656D01*
X57264Y-105616D02*
X68440D01*
X-76340D02*
X-64656D01*
X57264Y-105108D02*
X68440D01*
X-76340D02*
X-64656D01*
X57264Y-104600D02*
X68440D01*
X-76340D02*
X-64148D01*
X56756Y-104092D02*
X68440D01*
X-76340D02*
X-64148D01*
X56756Y-103584D02*
X68440D01*
X-76340D02*
X-64148D01*
X56248Y-103076D02*
X68440D01*
X-76340D02*
X-63640D01*
X56248Y-102568D02*
X68440D01*
X-76340D02*
X-63640D01*
X55740Y-102060D02*
X68440D01*
X-76340D02*
X-63132D01*
X55232Y-101552D02*
X68440D01*
X-76340D02*
X-62624D01*
X54724Y-101044D02*
X68440D01*
X-76340D02*
X-62116D01*
X54216Y-100536D02*
X68440D01*
X-76340D02*
X-61608D01*
X53200Y-100028D02*
X67932D01*
X-76340D02*
X-61100D01*
X52692Y-99520D02*
X67932D01*
X-76340D02*
X-60084D01*
X51168Y-99012D02*
X67932D01*
X-76340D02*
X-58560D01*
X49644Y-98504D02*
X67932D01*
X-75832D02*
X-57036D01*
X48120Y-97996D02*
X67932D01*
X-75832D02*
X-55512D01*
X46088Y-97488D02*
X67424D01*
X-75832D02*
X-53988D01*
X44564Y-96980D02*
X67424D01*
X-75324D02*
X-51956D01*
X43040Y-96472D02*
X66916D01*
X-75324D02*
X-50432D01*
X41516Y-95964D02*
X66916D01*
X-74816D02*
X-48908D01*
X39992Y-95456D02*
X66408D01*
X-74816D02*
X-47384D01*
X38468Y-94948D02*
X65900D01*
X-74308D02*
X-45860D01*
X36436Y-94440D02*
X65900D01*
X-73800D02*
X-43828D01*
X34912Y-93932D02*
X65392D01*
X-73292D02*
X-42304D01*
X33388Y-93424D02*
X64884D01*
X-72784D02*
X-40780D01*
X31864Y-92916D02*
X63868D01*
X-72276D02*
X-39256D01*
X30340Y-92408D02*
X63360D01*
X-71768D02*
X-37224D01*
X28816Y-91900D02*
X62344D01*
X-70752D02*
X-35700D01*
X26784Y-91392D02*
X60820D01*
X-69228D02*
X-34176D01*
X25260Y-90884D02*
X59296D01*
X-67704D02*
X-32652D01*
X23736Y-90376D02*
X57772D01*
X-66180D02*
X-31128D01*
X22212Y-89868D02*
X56248D01*
X-64656D02*
X-29096D01*
X20688Y-89360D02*
X54724D01*
X-63132D02*
X-27572D01*
X19164Y-88852D02*
X52692D01*
X-61100D02*
X-26048D01*
X17132Y-88344D02*
X51168D01*
X-59576D02*
X-24524D01*
X15608Y-87836D02*
X49644D01*
X-58052D02*
X-22492D01*
X14084Y-87328D02*
X48120D01*
X-56528D02*
X-20968D01*
X12560Y-86820D02*
X46596D01*
X-54496D02*
X-19444D01*
X11036Y-86312D02*
X45072D01*
X-52972D02*
X-17920D01*
X9512Y-85804D02*
X43040D01*
X-51448D02*
X-16396D01*
X7480Y-85296D02*
X41516D01*
X-49924D02*
X-14364D01*
X5956Y-84788D02*
X39992D01*
X-48400D02*
X-12840D01*
X4432Y-84280D02*
X38468D01*
X-46368D02*
X-11316D01*
X2908Y-83772D02*
X36944D01*
X-44844D02*
X-9792D01*
X1384Y-83264D02*
X35420D01*
X-43320D02*
X-7760D01*
X-140Y-82756D02*
X33388D01*
X-41796D02*
X-6236D01*
X-2172Y-82248D02*
X31864D01*
X-39764D02*
X-4204D01*
X-38240Y-81740D02*
X30340D01*
X-36716Y-81232D02*
X28816D01*
X-35192Y-80724D02*
X27292D01*
X-33668Y-80216D02*
X25768D01*
X-31636Y-79708D02*
X23736D01*
X-30112Y-79200D02*
X22212D01*
X-28588Y-78692D02*
X20688D01*
X-27064Y-78184D02*
X19164D01*
X-25032Y-77676D02*
X17640D01*
X-23508Y-77168D02*
X16116D01*
X-21984Y-76660D02*
X14084D01*
X-20460Y-76152D02*
X12560D01*
X-18936Y-75644D02*
X11036D01*
X-16904Y-75136D02*
X9512D01*
X-15380Y-74628D02*
X7988D01*
X-13856Y-74120D02*
X6464D01*
X-12332Y-73612D02*
X4432D01*
X-10300Y-73104D02*
X2908D01*
X-8776Y-72596D02*
X1384D01*
X-7252Y-72088D02*
X-140D01*
X-4712Y-71580D02*
X-2680D01*
D32*
X-4418Y69415D02*
X-5251Y70248D01*
X-6917D01*
X-7750Y69415D01*
Y66083D01*
X-6917Y65250D01*
X-5251D01*
X-4418Y66083D01*
X-253Y65250D02*
Y70248D01*
X-2752Y67749D01*
X581D01*
X-4168Y52415D02*
X-5001Y53248D01*
X-6667D01*
X-7500Y52415D01*
Y49083D01*
X-6667Y48250D01*
X-5001D01*
X-4168Y49083D01*
X-2502D02*
X-1669Y48250D01*
X-3D01*
X831Y49083D01*
Y52415D01*
X-3Y53248D01*
X-1669D01*
X-2502Y52415D01*
Y51582D01*
X-1669Y50749D01*
X831D01*
X-8500Y37498D02*
Y32500D01*
X-5168D01*
X-3502Y36665D02*
X-2669Y37498D01*
X-1002D01*
X-169Y36665D01*
Y35832D01*
X-1002Y34999D01*
X-1836D01*
X-1002D01*
X-169Y34166D01*
Y33333D01*
X-1002Y32500D01*
X-2669D01*
X-3502Y33333D01*
X-109750Y29000D02*
Y33998D01*
X-107251D01*
X-106418Y33165D01*
Y31499D01*
X-107251Y30666D01*
X-109750D01*
X-108084D02*
X-106418Y29000D01*
X-99753D02*
X-98087D01*
X-98920D01*
Y33998D01*
X-99753Y33165D01*
X-36168Y-68585D02*
X-37001Y-67752D01*
X-38667D01*
X-39500Y-68585D01*
Y-71917D01*
X-38667Y-72750D01*
X-37001D01*
X-36168Y-71917D01*
X-34502Y-72750D02*
X-32836D01*
X-33669D01*
Y-67752D01*
X-34502Y-68585D01*
X-30336D02*
X-29503Y-67752D01*
X-27837D01*
X-27004Y-68585D01*
Y-69418D01*
X-27837Y-70251D01*
X-27004Y-71084D01*
Y-71917D01*
X-27837Y-72750D01*
X-29503D01*
X-30336Y-71917D01*
Y-71084D01*
X-29503Y-70251D01*
X-30336Y-69418D01*
Y-68585D01*
X-29503Y-70251D02*
X-27837D01*
X-81168Y161415D02*
X-82001Y162248D01*
X-83667D01*
X-84500Y161415D01*
Y160582D01*
X-83667Y159749D01*
X-82001D01*
X-81168Y158916D01*
Y158083D01*
X-82001Y157250D01*
X-83667D01*
X-84500Y158083D01*
X-79502Y157250D02*
Y162248D01*
X-77003D01*
X-76169Y161415D01*
Y159749D01*
X-77003Y158916D01*
X-79502D01*
X-74503Y162248D02*
X-72837D01*
X-73670D01*
Y157250D01*
X-74503D01*
X-72837D01*
X-70338Y156417D02*
X-67006D01*
X-65340Y162248D02*
Y157250D01*
X-62840D01*
X-62007Y158083D01*
Y161415D01*
X-62840Y162248D01*
X-65340D01*
X-57009D02*
X-60341D01*
Y157250D01*
X-57009D01*
X-60341Y159749D02*
X-58675D01*
X-55343Y162248D02*
Y157250D01*
X-52844D01*
X-52011Y158083D01*
Y158916D01*
X-52844Y159749D01*
X-55343D01*
X-52844D01*
X-52011Y160582D01*
Y161415D01*
X-52844Y162248D01*
X-55343D01*
X-50345D02*
Y158083D01*
X-49511Y157250D01*
X-47845D01*
X-47012Y158083D01*
Y162248D01*
X-42014Y161415D02*
X-42847Y162248D01*
X-44513D01*
X-45346Y161415D01*
Y158083D01*
X-44513Y157250D01*
X-42847D01*
X-42014Y158083D01*
Y159749D01*
X-43680D01*
X162250Y-53500D02*
Y-48502D01*
X163916Y-50168D01*
X165582Y-48502D01*
Y-53500D01*
X169748Y-48502D02*
X168081D01*
X167248Y-49335D01*
Y-52667D01*
X168081Y-53500D01*
X169748D01*
X170581Y-52667D01*
Y-49335D01*
X169748Y-48502D01*
X175579Y-49335D02*
X174746Y-48502D01*
X173080D01*
X172247Y-49335D01*
Y-50168D01*
X173080Y-51001D01*
X174746D01*
X175579Y-51834D01*
Y-52667D01*
X174746Y-53500D01*
X173080D01*
X172247Y-52667D01*
X177245Y-48502D02*
X178911D01*
X178078D01*
Y-53500D01*
X177245D01*
X178911D01*
X53000Y159000D02*
Y163998D01*
X54666Y162332D01*
X56332Y163998D01*
Y159000D01*
X57998Y163998D02*
X59665D01*
X58831D01*
Y159000D01*
X57998D01*
X59665D01*
X65496Y163165D02*
X64663Y163998D01*
X62997D01*
X62164Y163165D01*
Y162332D01*
X62997Y161499D01*
X64663D01*
X65496Y160666D01*
Y159833D01*
X64663Y159000D01*
X62997D01*
X62164Y159833D01*
X69661Y163998D02*
X67995D01*
X67162Y163165D01*
Y159833D01*
X67995Y159000D01*
X69661D01*
X70494Y159833D01*
Y163165D01*
X69661Y163998D01*
X143582Y-108585D02*
X142749Y-107752D01*
X141083D01*
X140250Y-108585D01*
Y-111917D01*
X141083Y-112750D01*
X142749D01*
X143582Y-111917D01*
X148581Y-108585D02*
X147748Y-107752D01*
X146081D01*
X145248Y-108585D01*
Y-109418D01*
X146081Y-110251D01*
X147748D01*
X148581Y-111084D01*
Y-111917D01*
X147748Y-112750D01*
X146081D01*
X145248Y-111917D01*
X99332Y-171585D02*
X98499Y-170752D01*
X96833D01*
X96000Y-171585D01*
Y-174917D01*
X96833Y-175750D01*
X98499D01*
X99332Y-174917D01*
X100998Y-170752D02*
Y-175750D01*
X104331D01*
X105997Y-170752D02*
Y-175750D01*
Y-174084D01*
X109329Y-170752D01*
X106830Y-173251D01*
X109329Y-175750D01*
X-127500Y-120502D02*
Y-123834D01*
X-125834Y-125500D01*
X-124168Y-123834D01*
Y-120502D01*
X-122502D02*
Y-125500D01*
X-120002D01*
X-119169Y-124667D01*
Y-123834D01*
X-120002Y-123001D01*
X-122502D01*
X-120002D01*
X-119169Y-122168D01*
Y-121335D01*
X-120002Y-120502D01*
X-122502D01*
X-117503Y-125500D02*
Y-122168D01*
X-115837Y-120502D01*
X-114171Y-122168D01*
Y-125500D01*
Y-123001D01*
X-117503D01*
X-112505Y-120502D02*
X-109173D01*
X-110839D01*
Y-125500D01*
X98082Y129915D02*
X97249Y130748D01*
X95583D01*
X94750Y129915D01*
Y126583D01*
X95583Y125750D01*
X97249D01*
X98082Y126583D01*
Y128249D01*
X96416D01*
X99748Y125750D02*
Y130748D01*
X103081Y125750D01*
Y130748D01*
X104747D02*
Y125750D01*
X107246D01*
X108079Y126583D01*
Y129915D01*
X107246Y130748D01*
X104747D01*
M02*
