%FSLAX44Y44*%
%MOMM*%
G71*
G01*
G75*
G04 Layer_Physical_Order=2*
G04 Layer_Color=16711680*
%ADD10R,0.6000X0.5000*%
%ADD11R,0.5000X0.6000*%
%ADD12R,0.5000X0.5000*%
%ADD13R,1.4000X1.2000*%
%ADD14R,0.2500X0.5000*%
%ADD15C,1.5000*%
%ADD16R,0.2500X0.4000*%
%ADD17R,0.4000X0.2500*%
%ADD18R,3.2000X3.2000*%
%ADD19R,0.5590X1.1940*%
%ADD20R,0.9000X1.3000*%
%ADD21R,0.6000X1.2000*%
%ADD22R,0.6000X2.0000*%
%ADD23C,4.0000*%
%ADD24C,0.2000*%
%ADD25C,0.1500*%
%ADD26C,0.3000*%
%ADD27C,0.5000*%
%ADD28C,0.4500*%
%ADD29R,6.0700X6.0700*%
G36*
X179250Y124250D02*
Y93750D01*
Y84750D01*
X201000Y63000D01*
X203500Y60500D01*
Y31750D01*
X177000D01*
X139372Y-5878D01*
X134372Y-878D01*
X133628Y-381D01*
X132750Y-206D01*
X35477D01*
X35204Y204D01*
X33963Y1032D01*
X32500Y1323D01*
X31037Y1032D01*
X29796Y204D01*
X28968Y-1037D01*
X28677Y-2500D01*
X28968Y-3963D01*
X29796Y-5204D01*
X31037Y-6032D01*
X32500Y-6323D01*
X33943Y-6036D01*
X34013Y-6085D01*
X34847Y-6970D01*
X34468Y-7537D01*
X34176Y-9000D01*
X34468Y-10463D01*
X35296Y-11703D01*
X36537Y-12532D01*
X38000Y-12823D01*
X39463Y-12532D01*
X40704Y-11703D01*
X40977Y-11294D01*
X43934D01*
X44059Y-12564D01*
X43287Y-12718D01*
X42046Y-13546D01*
X41218Y-14787D01*
X40927Y-16250D01*
X41218Y-17713D01*
X42046Y-18954D01*
X43287Y-19782D01*
X44750Y-20073D01*
X46213Y-19782D01*
X47454Y-18954D01*
X47727Y-18544D01*
X59300D01*
X93003Y-52247D01*
X58559Y-86691D01*
X33250D01*
X33250Y-86691D01*
X32080Y-86924D01*
X31087Y-87587D01*
X31087Y-87587D01*
X28174Y-90500D01*
X-49191D01*
Y-74517D01*
X-21837Y-47163D01*
X-21174Y-46171D01*
X-20941Y-45000D01*
X-21174Y-43829D01*
X-21837Y-42837D01*
X-22829Y-42174D01*
X-24000Y-41941D01*
X-25171Y-42174D01*
X-26163Y-42837D01*
X-54413Y-71087D01*
X-55076Y-72080D01*
X-55309Y-73250D01*
X-55309Y-73250D01*
Y-90500D01*
X-126602D01*
X-127500Y-89602D01*
X-127500Y-12957D01*
X-127597Y-9355D01*
X-127500Y-6500D01*
Y139500D01*
X-38600D01*
Y85000D01*
X25100D01*
Y113791D01*
X27100D01*
X27100Y113791D01*
X28271Y114024D01*
X29263Y114687D01*
X38517Y123941D01*
X55233D01*
X79441Y99733D01*
Y87922D01*
X78968Y87213D01*
X78677Y85750D01*
X78968Y84287D01*
X79796Y83046D01*
X81037Y82218D01*
X82500Y81927D01*
X83963Y82218D01*
X85204Y83046D01*
X86032Y84287D01*
X86323Y85750D01*
X86032Y87213D01*
X85559Y87922D01*
Y101000D01*
X85559Y101000D01*
X85326Y102171D01*
X84663Y103163D01*
X84663Y103163D01*
X58663Y129163D01*
X57670Y129826D01*
X56500Y130059D01*
X56500Y130059D01*
X37250D01*
X36079Y129826D01*
X35087Y129163D01*
X35087Y129163D01*
X26370Y120446D01*
X25100Y120972D01*
Y139500D01*
X57756D01*
X90706Y106550D01*
Y26227D01*
X90296Y25954D01*
X89468Y24713D01*
X89177Y23250D01*
X89468Y21787D01*
X90296Y20546D01*
X91537Y19718D01*
X93000Y19427D01*
X94463Y19718D01*
X95704Y20546D01*
X96532Y21787D01*
X96823Y23250D01*
X96532Y24713D01*
X95704Y25954D01*
X95294Y26227D01*
Y107500D01*
X95119Y108378D01*
X94622Y109122D01*
X65418Y138327D01*
X65904Y139500D01*
X138006D01*
X166706Y110800D01*
Y39200D01*
X138300Y10794D01*
X36227D01*
X35954Y11204D01*
X34713Y12032D01*
X33250Y12323D01*
X31787Y12032D01*
X30546Y11204D01*
X29718Y9963D01*
X29427Y8500D01*
X29718Y7037D01*
X30546Y5796D01*
X31787Y4968D01*
X33250Y4677D01*
X34713Y4968D01*
X35954Y5796D01*
X36227Y6206D01*
X139250D01*
X140128Y6381D01*
X140872Y6878D01*
X170622Y36628D01*
X171119Y37372D01*
X171294Y38250D01*
Y111750D01*
X171119Y112628D01*
X170622Y113372D01*
X145668Y138327D01*
X146154Y139500D01*
X164000D01*
X179250Y124250D01*
D02*
G37*
G36*
X-140557Y17467D02*
X-140550D01*
X-139712Y16705D01*
X-139697D01*
X-139097Y15985D01*
X-139077Y15965D01*
X-138139Y14509D01*
Y14492D01*
X-136710Y11508D01*
X-134655Y5571D01*
X-132983Y-338D01*
Y-354D01*
X-130247Y-11323D01*
X-130925Y-12442D01*
X-132712Y-12875D01*
X-134216Y-11954D01*
X-135349Y-7241D01*
X-136848Y-1372D01*
X-138475Y4398D01*
X-139391Y7247D01*
X-140409Y9972D01*
X-140996Y11299D01*
X-141538Y12361D01*
X-141610Y12501D01*
X-142137Y13325D01*
X-142199Y13423D01*
X-142199Y13423D01*
X-142199Y13423D01*
X-142201Y13425D01*
X-142201Y13425D01*
X-142287Y13555D01*
X-142303Y13578D01*
X-142303Y13579D01*
X-142303Y13579D01*
X-142303Y13579D01*
X-142303Y13579D01*
X-142303Y13579D01*
X-142305Y13581D01*
X-142305Y13582D01*
X-142305Y13582D01*
X-142306Y13583D01*
X-142404Y13696D01*
X-142411Y13704D01*
X-142430Y13726D01*
X-142430D01*
X-142522Y13832D01*
X-142526Y13837D01*
X-142548Y13863D01*
X-142549Y13863D01*
X-142574Y13893D01*
X-142576Y13895D01*
X-142583Y13902D01*
X-142583D01*
X-142587Y13907D01*
X-142615Y13939D01*
X-142617Y13942D01*
X-142626Y13952D01*
X-142626Y13952D01*
X-142626Y13953D01*
X-142630Y13957D01*
X-142630Y13957D01*
X-142631Y13958D01*
X-142632Y13959D01*
X-142637Y13965D01*
X-142637Y13965D01*
X-142639Y13967D01*
X-142639Y13967D01*
X-142641Y13969D01*
X-142641Y13970D01*
X-142642Y13971D01*
X-142643Y13972D01*
X-142643Y13972D01*
X-142643Y13973D01*
X-142643Y13973D01*
X-142644D01*
X-142645Y13974D01*
X-142653Y13982D01*
X-142653Y13982D01*
X-142656Y13985D01*
X-142656D01*
X-142658Y13987D01*
X-142666Y13995D01*
X-142670Y13999D01*
X-142670D01*
X-142671Y14000D01*
X-142674Y14003D01*
X-142675Y14003D01*
X-142676Y14005D01*
X-142676Y14005D01*
X-142678Y14008D01*
X-142680Y14009D01*
X-142680D01*
X-142690Y14019D01*
X-142719Y14048D01*
X-142731Y14060D01*
X-142743Y14072D01*
X-142766Y14095D01*
X-142769Y14098D01*
X-142786Y14115D01*
X-142793Y14122D01*
X-142806Y14135D01*
X-142817Y14146D01*
X-142818Y14147D01*
X-142827Y14156D01*
X-142827Y14156D01*
X-142828Y14158D01*
X-142831Y14160D01*
X-142832Y14161D01*
X-142843Y14172D01*
Y14172D01*
X-142845Y14174D01*
X-142848Y14177D01*
X-142848Y14177D01*
X-142848Y14177D01*
X-142850Y14179D01*
Y14179D01*
X-142850Y14179D01*
X-142851Y14180D01*
X-142863Y14192D01*
X-142864Y14193D01*
X-142865Y14194D01*
X-142866Y14195D01*
X-142868Y14197D01*
X-142873Y14202D01*
X-142879Y14208D01*
X-142880Y14209D01*
X-142886Y14215D01*
X-142891Y14220D01*
X-142897Y14226D01*
X-142897Y14226D01*
X-142905Y14234D01*
X-142906Y14235D01*
X-142907Y14236D01*
X-142908Y14237D01*
X-142913Y14242D01*
X-142918Y14247D01*
X-142918Y14247D01*
X-142919Y14248D01*
X-142925Y14254D01*
X-142925D01*
Y14254D01*
X-142925D01*
Y14254D01*
X-142927Y14255D01*
X-142928Y14257D01*
X-142928Y14258D01*
X-142937Y14266D01*
X-142937Y14266D01*
X-142938Y14267D01*
X-142945Y14274D01*
X-143219Y14110D01*
X-143219Y14110D01*
X-143219Y14109D01*
Y14108D01*
X-143219Y14106D01*
X-143219Y14105D01*
Y14091D01*
X-143219Y14090D01*
Y14090D01*
X-143219Y14090D01*
Y14079D01*
X-143219Y14078D01*
X-143219Y14077D01*
Y14067D01*
X-143219Y14066D01*
X-143219Y14065D01*
Y14065D01*
X-143219Y14064D01*
X-143219Y14064D01*
Y14063D01*
X-143219Y14063D01*
X-143219Y14062D01*
Y14062D01*
X-143219Y14062D01*
X-143219Y14061D01*
Y14061D01*
X-143219Y14060D01*
X-143219Y14060D01*
Y14059D01*
X-143219Y14058D01*
X-143219Y14058D01*
Y14057D01*
X-143219Y14057D01*
X-143220Y14056D01*
X-143220Y14056D01*
X-143221Y14056D01*
X-143221Y14055D01*
X-143222Y14054D01*
X-143223Y14053D01*
X-143226Y14049D01*
X-143226Y14049D01*
X-143227Y14047D01*
X-143228Y14047D01*
X-143228Y14046D01*
X-143228Y14046D01*
X-143228Y14046D01*
X-143230Y14044D01*
X-143231Y14042D01*
X-143236Y14036D01*
X-143236Y14036D01*
X-143236Y14035D01*
X-143238Y14034D01*
X-143238Y14033D01*
X-143239Y14032D01*
X-143239Y14032D01*
X-143241Y14030D01*
X-143243Y14027D01*
X-143250Y14018D01*
X-143250Y14018D01*
X-143250Y14018D01*
X-143253Y14014D01*
X-143256Y14011D01*
X-143257Y14009D01*
X-143258Y14008D01*
X-143258Y14008D01*
X-143263Y14002D01*
X-143268Y13996D01*
X-143289Y13969D01*
X-143289Y13969D01*
X-143291Y13966D01*
X-143293Y13964D01*
X-143294Y13963D01*
X-143294Y13962D01*
X-143295Y13962D01*
X-143298Y13958D01*
X-143302Y13952D01*
X-143303Y13951D01*
X-143319Y13931D01*
X-143319Y13931D01*
X-143319Y13931D01*
X-143319Y13931D01*
X-143319Y13931D01*
X-143319Y13931D01*
X-143319Y13931D01*
X-143319Y13931D01*
X-143320Y13930D01*
X-143320D01*
X-143320Y13930D01*
X-143320Y13930D01*
X-143321Y13928D01*
X-143321Y13928D01*
X-143322Y13928D01*
X-143322Y13928D01*
X-143322Y13928D01*
X-143322Y13928D01*
X-143322Y13927D01*
X-143322Y13927D01*
X-143322Y13927D01*
X-143323Y13926D01*
X-143323Y13926D01*
X-143325Y13923D01*
X-143325Y13923D01*
X-143326Y13923D01*
X-143326Y13922D01*
X-143326Y13922D01*
X-143326Y13922D01*
X-143326Y13922D01*
X-143327Y13921D01*
X-143327Y13921D01*
X-143329Y13919D01*
X-143329Y13918D01*
X-143333Y13914D01*
X-143333Y13914D01*
X-143335Y13911D01*
X-143336Y13910D01*
X-143337Y13909D01*
X-143337Y13908D01*
X-143337Y13908D01*
X-143341Y13904D01*
X-143341Y13904D01*
X-143345Y13898D01*
X-143348Y13895D01*
X-143362Y13877D01*
X-143362Y13877D01*
X-143362Y13876D01*
X-143363Y13876D01*
X-143363Y13875D01*
X-143364Y13875D01*
X-143364Y13875D01*
X-143365Y13873D01*
X-143365Y13873D01*
X-143368Y13870D01*
X-143370Y13867D01*
X-143376Y13859D01*
X-143376Y13859D01*
X-143376Y13859D01*
X-143377Y13858D01*
X-143377Y13858D01*
X-143378Y13857D01*
X-143378Y13857D01*
X-143378Y13857D01*
X-143379Y13855D01*
X-143380Y13855D01*
X-143382Y13852D01*
X-143385Y13848D01*
X-143391Y13841D01*
X-143391Y13841D01*
X-143392Y13839D01*
X-143393Y13838D01*
X-143393Y13837D01*
X-143393Y13837D01*
X-143394Y13837D01*
X-143396Y13834D01*
X-143396Y13834D01*
X-143399Y13830D01*
X-143404Y13824D01*
X-143413Y13813D01*
X-143413Y13813D01*
X-143414Y13811D01*
X-143415Y13810D01*
X-143416Y13809D01*
X-143416Y13808D01*
X-143416Y13808D01*
X-143419Y13805D01*
X-143419Y13805D01*
X-143423Y13799D01*
X-143431Y13789D01*
X-143441Y13778D01*
X-143441Y13777D01*
X-143456Y13757D01*
X-143467Y13744D01*
X-143475Y13734D01*
X-143477Y13731D01*
X-143478Y13730D01*
X-143502Y13700D01*
X-143508Y13692D01*
X-143663Y13496D01*
X-143675Y13481D01*
X-143675Y13481D01*
X-143675Y13481D01*
X-143676Y13481D01*
X-143676Y13480D01*
Y13480D01*
X-143676Y13480D01*
X-143676Y13480D01*
X-143676Y13480D01*
X-143676Y13480D01*
X-143676Y13480D01*
X-143677Y13478D01*
X-143679Y13477D01*
X-143714Y13428D01*
X-143788Y13328D01*
X-143791Y13324D01*
X-143791Y13324D01*
X-144192Y12783D01*
X-145673Y9642D01*
X-146692Y6865D01*
X-148421Y1144D01*
X-151420Y-10595D01*
X-155076Y-25422D01*
X-157748Y-34330D01*
Y-34349D01*
X-159536Y-38758D01*
X-160364Y-40286D01*
Y-40303D01*
X-161431Y-41801D01*
Y-41814D01*
X-162138Y-42524D01*
X-163189Y-43242D01*
X-163197Y-43250D01*
X-164624Y-43671D01*
X-164643Y-43671D01*
X-165015Y-43629D01*
X-166181Y-43491D01*
X-166181Y-43491D01*
X-167301Y-42907D01*
X-168213Y-42045D01*
X-168238D01*
X-168979Y-41134D01*
X-169397Y-40586D01*
X-170272Y-39022D01*
X-170289D01*
X-171540Y-36152D01*
Y-36131D01*
X-173526Y-30201D01*
X-174795Y-25426D01*
X-176653Y-18353D01*
X-176678Y-18303D01*
X-179545Y-6479D01*
X-182722Y5161D01*
X-184708Y10686D01*
X-185961Y13090D01*
X-186152Y13350D01*
X-186248Y13481D01*
X-186248Y13481D01*
X-186255Y13491D01*
X-186313Y13562D01*
X-186330Y13583D01*
X-186339Y13595D01*
X-186341Y13598D01*
X-186341Y13598D01*
X-186345Y13602D01*
X-186348Y13606D01*
X-186348Y13606D01*
X-186348Y13607D01*
X-186349Y13607D01*
X-186349Y13607D01*
X-186357Y13618D01*
X-186363Y13625D01*
X-186364Y13626D01*
X-186365Y13628D01*
X-186366Y13629D01*
X-186366Y13629D01*
X-186375Y13640D01*
X-186375Y13640D01*
X-186382Y13648D01*
X-186383Y13649D01*
X-186384Y13652D01*
X-186385Y13652D01*
X-186385Y13652D01*
X-186387Y13655D01*
X-186387Y13655D01*
X-186388Y13656D01*
X-186388Y13656D01*
X-186388Y13656D01*
X-186388Y13656D01*
X-186437Y13718D01*
X-186454Y13738D01*
X-186458Y13744D01*
X-186468Y13757D01*
X-186471Y13760D01*
X-186472Y13761D01*
X-186506Y13803D01*
X-186518Y13819D01*
X-186532Y13837D01*
X-186532Y13837D01*
X-186543Y13850D01*
X-186544Y13851D01*
X-186548Y13857D01*
X-186550Y13858D01*
X-186553Y13862D01*
X-186554Y13863D01*
X-186554Y13863D01*
X-186582Y13899D01*
X-186592Y13911D01*
X-186595Y13915D01*
X-186603Y13925D01*
X-186606Y13929D01*
X-186606Y13929D01*
X-186626Y13953D01*
X-186632Y13961D01*
X-186635Y13964D01*
X-186641Y13972D01*
X-186643Y13975D01*
X-186643Y13975D01*
X-186653Y13988D01*
X-186656Y13991D01*
X-186658Y13993D01*
X-186661Y13998D01*
X-186662Y13999D01*
X-186897Y14208D01*
X-186908Y14217D01*
X-186917Y14225D01*
X-186941Y14247D01*
X-186959Y14262D01*
X-186964Y14267D01*
X-186967Y14270D01*
X-186979Y14281D01*
X-186988Y14274D01*
X-186991Y14271D01*
X-186993Y14270D01*
X-186993Y14270D01*
X-187015Y14252D01*
X-187019Y14249D01*
X-187020Y14248D01*
X-187021Y14247D01*
X-187027Y14242D01*
X-187048Y14226D01*
X-187054Y14220D01*
X-187059Y14217D01*
X-187062Y14214D01*
X-187124Y14165D01*
X-187149Y14145D01*
X-187163Y14134D01*
X-187197Y14106D01*
X-187218Y14083D01*
X-187225Y14076D01*
X-187230Y14070D01*
X-187235Y14065D01*
X-187248Y14051D01*
X-187288Y14007D01*
X-187298Y13996D01*
X-187301Y13993D01*
X-187304Y13989D01*
X-187308Y13985D01*
X-187335Y13956D01*
X-187364Y13924D01*
X-187373Y13914D01*
X-187381Y13905D01*
X-187391Y13894D01*
X-187480Y13798D01*
X-187480D01*
X-187482Y13796D01*
X-187483Y13794D01*
X-187487Y13790D01*
X-187487D01*
X-187493Y13784D01*
X-187500Y13778D01*
X-187501Y13776D01*
X-187502Y13775D01*
X-187503Y13774D01*
X-187506Y13771D01*
X-187512Y13765D01*
X-187514Y13764D01*
X-187515Y13762D01*
X-187516Y13761D01*
X-187521Y13754D01*
X-187526Y13746D01*
X-187532Y13736D01*
X-187532Y13736D01*
X-187532Y13736D01*
X-187533Y13735D01*
X-187534Y13733D01*
X-187539Y13726D01*
X-187546Y13715D01*
X-187552Y13706D01*
X-187552Y13706D01*
X-187553Y13705D01*
X-187554Y13704D01*
X-187557Y13699D01*
X-187563Y13691D01*
X-187566Y13685D01*
X-187566Y13685D01*
X-187569Y13681D01*
X-187573Y13676D01*
X-187588Y13652D01*
X-187631Y13587D01*
X-187631Y13587D01*
X-187635Y13581D01*
X-187640Y13575D01*
X-187693Y13495D01*
X-187722Y13451D01*
X-187722Y13451D01*
X-187813Y13322D01*
X-187813D01*
Y13322D01*
X-188210Y12758D01*
X-188826Y11552D01*
X-189946Y8928D01*
X-190940Y6128D01*
X-192236Y1830D01*
X-193406Y-2543D01*
X-196739Y-16086D01*
X-198254Y-17003D01*
X-200135Y-16535D01*
X-200716Y-15558D01*
X-197275Y-1541D01*
X-194737Y7367D01*
X-193699Y10332D01*
X-192487Y13226D01*
X-192469D01*
X-191632Y14820D01*
Y14836D01*
X-190633Y16259D01*
X-190590Y16345D01*
Y16349D01*
X-189907Y17059D01*
X-189867Y17088D01*
X-189853Y17097D01*
X-188863Y17772D01*
X-187603Y17797D01*
X-185209D01*
X-184625Y17518D01*
X-184596D01*
X-183771Y16793D01*
X-183757Y16780D01*
X-182600Y15275D01*
X-181057Y12293D01*
X-178902Y6360D01*
X-175677Y-5525D01*
X-172781Y-17363D01*
X-169706Y-29051D01*
X-167823Y-34674D01*
X-166676Y-37276D01*
X-166033Y-38432D01*
X-165765Y-38783D01*
Y-38783D01*
X-165765Y-38783D01*
X-165699Y-38869D01*
X-165699Y-38869D01*
X-165691Y-38879D01*
X-165681Y-38894D01*
X-165638Y-38951D01*
X-165632Y-38960D01*
X-165630Y-38962D01*
X-165628Y-38965D01*
X-165628Y-38965D01*
X-165627Y-38967D01*
X-165624Y-38971D01*
X-165624Y-38971D01*
X-165623Y-38972D01*
X-165623Y-38972D01*
X-165623Y-38972D01*
X-165617Y-38981D01*
X-165612Y-38988D01*
X-165611Y-38989D01*
X-165609Y-38990D01*
X-165609Y-38991D01*
X-165609Y-38991D01*
X-165609Y-38991D01*
X-165602Y-39000D01*
X-165600Y-39003D01*
X-165596Y-39009D01*
X-165595Y-39010D01*
X-165593Y-39012D01*
X-165593Y-39013D01*
X-165592Y-39014D01*
X-165592Y-39014D01*
X-165591Y-39015D01*
X-165591Y-39015D01*
X-165591Y-39016D01*
X-165590Y-39016D01*
X-165590Y-39016D01*
X-165590Y-39017D01*
X-165590Y-39017D01*
X-165590Y-39017D01*
X-165589Y-39018D01*
X-165589Y-39018D01*
X-165588Y-39019D01*
X-165588Y-39020D01*
X-165588Y-39020D01*
X-165588Y-39020D01*
X-165588Y-39020D01*
X-165587Y-39020D01*
X-165547Y-39076D01*
X-165531Y-39097D01*
X-165525Y-39104D01*
X-165518Y-39115D01*
X-165515Y-39118D01*
X-165512Y-39122D01*
X-165512Y-39123D01*
X-165485Y-39160D01*
X-165468Y-39182D01*
X-165454Y-39202D01*
X-165448Y-39209D01*
X-165438Y-39223D01*
X-165435Y-39227D01*
X-165431Y-39233D01*
X-165431Y-39233D01*
X-165421Y-39247D01*
X-165418Y-39250D01*
X-165414Y-39256D01*
X-165412Y-39259D01*
X-165408Y-39263D01*
X-165408Y-39264D01*
X-165406Y-39266D01*
X-165406Y-39266D01*
X-165392Y-39286D01*
X-165392Y-39286D01*
X-165384Y-39296D01*
X-165380Y-39302D01*
X-165379Y-39303D01*
X-165377Y-39306D01*
X-165377Y-39306D01*
X-165362Y-39326D01*
X-165357Y-39332D01*
X-165355Y-39336D01*
X-165351Y-39342D01*
X-165349Y-39344D01*
X-165347Y-39346D01*
X-165347Y-39346D01*
X-165341Y-39354D01*
X-165340Y-39357D01*
X-165339Y-39358D01*
X-165337Y-39360D01*
X-165336Y-39361D01*
X-165336Y-39362D01*
X-165136Y-39542D01*
X-165062Y-39608D01*
X-164995Y-39669D01*
X-164994Y-39669D01*
X-164994Y-39669D01*
X-164994Y-39669D01*
X-164994Y-39669D01*
X-164988Y-39664D01*
X-164984Y-39662D01*
X-164980Y-39658D01*
X-164975Y-39655D01*
X-164964Y-39646D01*
X-164953Y-39638D01*
X-164946Y-39633D01*
X-164938Y-39627D01*
X-164930Y-39621D01*
X-164905Y-39602D01*
X-164887Y-39589D01*
X-164876Y-39581D01*
X-164862Y-39570D01*
X-164848Y-39559D01*
X-164802Y-39525D01*
X-164788Y-39511D01*
X-164779Y-39503D01*
X-164768Y-39491D01*
X-164727Y-39451D01*
X-164707Y-39430D01*
X-164695Y-39418D01*
X-164630Y-39353D01*
X-164614Y-39337D01*
X-164609Y-39332D01*
X-164546Y-39269D01*
X-164454Y-39177D01*
X-164454Y-39177D01*
Y-39176D01*
X-164454Y-39170D01*
Y-39160D01*
X-164454Y-39160D01*
X-164454Y-39153D01*
Y-39142D01*
X-164444Y-39130D01*
X-164439Y-39123D01*
X-164430Y-39111D01*
X-164430Y-39111D01*
X-164417Y-39094D01*
X-164407Y-39081D01*
X-164405Y-39078D01*
X-164396Y-39067D01*
X-164396Y-39067D01*
X-164390Y-39059D01*
X-164382Y-39048D01*
X-164379Y-39045D01*
X-164379Y-39045D01*
X-164356Y-39015D01*
X-164316Y-38963D01*
X-164316Y-38963D01*
X-164260Y-38890D01*
X-164248Y-38874D01*
X-164247Y-38874D01*
X-164224Y-38843D01*
X-164224Y-38843D01*
X-164144Y-38726D01*
Y-38726D01*
X-164144D01*
X-163786Y-38200D01*
X-163145Y-37019D01*
X-161540Y-32994D01*
X-158946Y-24400D01*
X-155314Y-9666D01*
X-152267Y2216D01*
X-150465Y8156D01*
X-150465Y8156D01*
Y8156D01*
X-150465Y8156D01*
X-150464Y8157D01*
X-149391Y11120D01*
Y11143D01*
X-147613Y14848D01*
Y14863D01*
X-146884Y15959D01*
X-146656Y16210D01*
X-145850Y17086D01*
X-145810Y17086D01*
Y17121D01*
X-145713Y17192D01*
X-144761Y17797D01*
X-141217D01*
X-140557Y17467D01*
D02*
G37*
%LPC*%
G36*
X-6750Y24059D02*
X-7921Y23826D01*
X-8913Y23163D01*
X-9576Y22171D01*
X-9809Y21000D01*
Y-5183D01*
X-26413Y-21787D01*
X-27076Y-22780D01*
X-27309Y-23950D01*
X-27076Y-25120D01*
X-26413Y-26113D01*
X-25420Y-26776D01*
X-24250Y-27009D01*
X-23080Y-26776D01*
X-22087Y-26113D01*
X-6750Y-10776D01*
X5837Y-23363D01*
X6830Y-24026D01*
X8000Y-24259D01*
X9171Y-24026D01*
X10163Y-23363D01*
X10826Y-22371D01*
X11059Y-21200D01*
X10826Y-20029D01*
X10163Y-19037D01*
X-2424Y-6450D01*
X20613Y16587D01*
X21276Y17579D01*
X21509Y18750D01*
X21276Y19921D01*
X20613Y20913D01*
X19620Y21576D01*
X18450Y21809D01*
X17279Y21576D01*
X16287Y20913D01*
X-2518Y2108D01*
X-3691Y2594D01*
Y21000D01*
X-3924Y22171D01*
X-4587Y23163D01*
X-5580Y23826D01*
X-6750Y24059D01*
D02*
G37*
G36*
X34500Y-24177D02*
X33037Y-24468D01*
X31796Y-25296D01*
X30968Y-26537D01*
X30677Y-28000D01*
X30968Y-29463D01*
X31796Y-30704D01*
X31951Y-30807D01*
Y-66194D01*
X26448Y-71698D01*
X25895Y-72524D01*
X25701Y-73500D01*
X25813Y-74063D01*
X25677Y-74750D01*
X25968Y-76213D01*
X26796Y-77454D01*
X28037Y-78282D01*
X29500Y-78573D01*
X30963Y-78282D01*
X32204Y-77454D01*
X33032Y-76213D01*
X33323Y-74750D01*
X33032Y-73287D01*
X32646Y-72709D01*
X36302Y-69052D01*
X36855Y-68225D01*
X37049Y-67250D01*
Y-30807D01*
X37204Y-30704D01*
X38032Y-29463D01*
X38323Y-28000D01*
X38032Y-26537D01*
X37204Y-25296D01*
X35963Y-24468D01*
X34500Y-24177D01*
D02*
G37*
G36*
X64000Y93578D02*
X61651Y93268D01*
X59461Y92361D01*
X57581Y90919D01*
X56139Y89039D01*
X55232Y86849D01*
X54922Y84500D01*
X55232Y82150D01*
X56139Y79961D01*
X57581Y78081D01*
X59461Y76639D01*
X61651Y75732D01*
X62206Y75659D01*
Y71977D01*
X61796Y71704D01*
X60968Y70463D01*
X60677Y69000D01*
X60968Y67537D01*
X61796Y66296D01*
X63037Y65468D01*
X64500Y65177D01*
X65963Y65468D01*
X67204Y66296D01*
X68032Y67537D01*
X68323Y69000D01*
X68032Y70463D01*
X67204Y71704D01*
X66794Y71977D01*
Y75916D01*
X68539Y76639D01*
X70419Y78081D01*
X71862Y79961D01*
X72768Y82150D01*
X73078Y84500D01*
X72768Y86849D01*
X71862Y89039D01*
X70419Y90919D01*
X68539Y92361D01*
X66350Y93268D01*
X64000Y93578D01*
D02*
G37*
G36*
X-69000Y122078D02*
X-71350Y121768D01*
X-73539Y120862D01*
X-75419Y119419D01*
X-76861Y117539D01*
X-77768Y115350D01*
X-78078Y113000D01*
X-77768Y110651D01*
X-76861Y108461D01*
X-75419Y106581D01*
X-73539Y105139D01*
X-71350Y104232D01*
X-71309Y104226D01*
Y94422D01*
X-71782Y93713D01*
X-72073Y92250D01*
X-71782Y90787D01*
X-71309Y90078D01*
Y47000D01*
X-71309Y47000D01*
X-71076Y45830D01*
X-70413Y44837D01*
X-57059Y31483D01*
Y8922D01*
X-57532Y8213D01*
X-57823Y6750D01*
X-57532Y5287D01*
X-56704Y4046D01*
X-55463Y3218D01*
X-54000Y2927D01*
X-52537Y3218D01*
X-51296Y4046D01*
X-50468Y5287D01*
X-50177Y6750D01*
X-50468Y8213D01*
X-50941Y8922D01*
Y32750D01*
X-50941Y32750D01*
X-51174Y33921D01*
X-51837Y34913D01*
X-51837Y34913D01*
X-65191Y48267D01*
Y90078D01*
X-64718Y90787D01*
X-64427Y92250D01*
X-64718Y93713D01*
X-65191Y94422D01*
Y104836D01*
X-64461Y105139D01*
X-62581Y106581D01*
X-61139Y108461D01*
X-60232Y110651D01*
X-59922Y113000D01*
X-60232Y115350D01*
X-61139Y117539D01*
X-62581Y119419D01*
X-64461Y120862D01*
X-66651Y121768D01*
X-69000Y122078D01*
D02*
G37*
%LPD*%
D15*
X64000Y84500D02*
D03*
X-69000Y113000D02*
D03*
D24*
X34500Y-67250D02*
Y-28000D01*
X28250Y-73500D02*
X34500Y-67250D01*
X28250Y-73500D02*
X29500Y-74750D01*
D25*
X-35000Y190250D02*
X10250D01*
X93000Y107500D01*
Y23250D02*
Y107500D01*
X32500Y-2500D02*
X132750D01*
X172250Y-42000D01*
X38000Y-9000D02*
X93000D01*
X44750Y-16250D02*
X60250D01*
X123250Y-79250D01*
X64000Y84500D02*
X64500Y84000D01*
X33250Y8500D02*
X139250D01*
X169000Y38250D02*
Y111750D01*
X139250Y8500D02*
X169000Y38250D01*
X123250Y-122500D02*
Y-79250D01*
X93000Y-9000D02*
X156500Y-72500D01*
X157000D01*
X94125Y186625D02*
X169000Y111750D01*
X64500Y69000D02*
Y84000D01*
D26*
X33250Y-89750D02*
X95250D01*
X-52250Y-73250D02*
X-24000Y-45000D01*
X-52250Y-137000D02*
Y-73250D01*
X-19500Y-142500D02*
X-6750Y-129750D01*
X-92750Y-142500D02*
X-19500D01*
X-54000Y6750D02*
Y32750D01*
X-68250Y47000D02*
X-54000Y32750D01*
X-68250Y47000D02*
Y92250D01*
Y112250D01*
X-69000Y113000D02*
X-68250Y112250D01*
X-6750Y-6450D02*
Y21000D01*
X-24250Y-23950D02*
X-6750Y-6450D01*
X18450Y18750D01*
X-6750Y-6450D02*
X8000Y-21200D01*
X-24250Y134350D02*
Y157250D01*
Y134350D02*
X-6750Y116850D01*
Y-129750D02*
X33250Y-89750D01*
X82500Y85750D02*
Y101000D01*
X-6750Y116850D02*
X27100D01*
X37250Y127000D01*
X56500D01*
X82500Y101000D01*
D28*
X-132000Y-12000D02*
D03*
X40250Y-53000D02*
D03*
X34500Y-28000D02*
D03*
X95250Y-89750D02*
D03*
X-52250Y-137000D02*
D03*
X29500Y-74750D02*
D03*
X500Y-10500D02*
D03*
X12250D02*
D03*
Y750D02*
D03*
X-11500Y-9750D02*
D03*
X0Y0D02*
D03*
X-92750Y-142500D02*
D03*
X-68250Y92250D02*
D03*
X-54000Y6750D02*
D03*
X93000Y23250D02*
D03*
X-35000Y190250D02*
D03*
X172250Y-42000D02*
D03*
X44750Y-16250D02*
D03*
X38000Y-9000D02*
D03*
X33250Y8500D02*
D03*
X32500Y-2500D02*
D03*
X-11750Y12000D02*
D03*
X0D02*
D03*
X11500D02*
D03*
X-11500Y1500D02*
D03*
X-83500Y32500D02*
D03*
X-120500D02*
D03*
X-116750Y8750D02*
D03*
X-84000Y6750D02*
D03*
X144350Y58230D02*
D03*
X183000Y68750D02*
D03*
X-24250Y157250D02*
D03*
X82500Y85750D02*
D03*
X36250Y46750D02*
D03*
X123250Y-122500D02*
D03*
X157000Y-72500D02*
D03*
X94125Y186625D02*
D03*
X115500Y23250D02*
D03*
X64500Y69000D02*
D03*
X-24000Y-45000D02*
D03*
D29*
X-6750Y-129750D02*
D03*
Y116850D02*
D03*
Y-6450D02*
D03*
M02*
