M48
;Layer_Color=9474304
;FILE_FORMAT=2:5
INCH,LZ
;TYPE=PLATED
T1F00S00C0.00787
%
T01
X-0036516Y-0056102
X-0033071Y0002657
X-0032874Y0012795
X-0047441
X-0045965Y0003445
X-0051968Y-0004724
X-002126Y0002657
X-0004626Y0004724
X-0004528Y0000591
Y-0003839
X0000197Y-0004134
X0Y0
Y0004724
X0004528
X0004823Y0000295
Y-0004134
X0014961Y-0003543
X0012795Y-0000984
X0013091Y0003347
X0017618Y-0006398
X0015846Y-0020866
X-0009449Y-0017717
X00375Y-0035335
X0048524Y-0048228
X0061811Y-0028543
X0067815Y-0016535
X0045472Y0009154
X0036614
X003248Y003376
X0025394Y0027165
X0014272Y0018406
X0056831Y0022925
X0072047Y0027067
X0037057Y0073474
X-001378Y0074902
X-0009547Y006191
X-002687Y0036319
M30
